<?xml version="1.0" encoding="UTF-8"?>
<!DOCTYPE svg PUBLIC "-//W3C//DTD SVG 1.1//EN" "http://www.w3.org/Graphics/SVG/1.1/DTD/svg11.dtd">
<!-- Creator: CorelDRAW 2018 (64-Bit) -->
<svg xmlns="http://www.w3.org/2000/svg" xml:space="preserve" width="500mm" height="496.255mm" version="1.1" style="shape-rendering:geometricPrecision; text-rendering:geometricPrecision; image-rendering:optimizeQuality; fill-rule:evenodd; clip-rule:evenodd"
viewBox="0 0 8754.38 8688.82"
 xmlns:xlink="http://www.w3.org/1999/xlink">
 <defs>
  <style type="text/css">
   <![CDATA[
    .fil0 {fill:#E31E24}
   ]]>
  </style>
 </defs>
 <g id="Слой_x0020_1">
  <metadata id="CorelCorpID_0Corel-Layer"/>
  <path class="fil0" d="M4683.71 4815.59c102.74,-223.25 384.96,-1302.73 981.25,-2085.86 321.48,-422.23 734.46,-758.38 1259.64,-827.66 456.82,-60.27 303.98,257.19 -62.05,853.89 -517.79,844.1 -1462.43,2247.37 -1711.21,3930.96 -47.7,322.7 -2080.55,-3629.86 -3660.12,-3849.42 -805.33,-111.95 -1364.89,271.36 -1475.77,975.15 -283.95,1803.01 3417.83,2487.68 5099.05,4876 23.81,33.84 4412.81,-5382.19 3520.06,-7428.8 -1108.83,-2542.02 -5761.6,-1080.78 -4205.37,2978.02 71.62,186.9 156.21,379.51 254.5,577.71z"/>
 </g>
</svg>
