<svg width="420" height="429" viewBox="0 0 420 429" fill="none" xmlns="http://www.w3.org/2000/svg">
<path d="M21 1.5H106C116.77 1.5 125.5 10.2304 125.5 21V43C125.5 53.7696 116.77 62.5 106 62.5H5C3.067 62.5 1.5 60.933 1.5 59V21C1.5 10.2304 10.2304 1.5 21 1.5Z" stroke="#E31E24" stroke-width="3" stroke-linecap="round" stroke-linejoin="round"/>
<path d="M37.034 26.526V39H35.288V28.02H29.294V39H27.548V26.526H37.034ZM46.5239 34.338C46.5239 33.246 46.2539 32.406 45.7139 31.818C45.1739 31.23 44.4539 30.936 43.5539 30.936C43.0499 30.936 42.6539 30.954 42.3659 30.99C42.0899 31.026 41.8679 31.068 41.6999 31.116V37.02C41.9039 37.188 42.1979 37.35 42.5819 37.506C42.9659 37.662 43.3859 37.74 43.8419 37.74C44.3219 37.74 44.7299 37.656 45.0659 37.488C45.4139 37.308 45.6959 37.068 45.9119 36.768C46.1279 36.456 46.2839 36.096 46.3799 35.688C46.4759 35.268 46.5239 34.818 46.5239 34.338ZM48.2699 34.338C48.2699 35.046 48.1739 35.7 47.9819 36.3C47.8019 36.9 47.5319 37.416 47.1719 37.848C46.8119 38.28 46.3679 38.616 45.8399 38.856C45.3239 39.096 44.7299 39.216 44.0579 39.216C43.5179 39.216 43.0379 39.144 42.6179 39C42.2099 38.856 41.9039 38.718 41.6999 38.586V42.33H40.0259V29.928C40.4219 29.832 40.9139 29.73 41.5019 29.622C42.1019 29.502 42.7919 29.442 43.5719 29.442C44.2919 29.442 44.9399 29.556 45.5159 29.784C46.0919 30.012 46.5839 30.336 46.9919 30.756C47.3999 31.176 47.7119 31.692 47.9279 32.304C48.1559 32.904 48.2699 33.582 48.2699 34.338ZM58.4915 29.64V39H56.8715V31.872C56.5115 32.328 56.1155 32.862 55.6835 33.474C55.2515 34.086 54.8195 34.722 54.3875 35.382C53.9555 36.03 53.5415 36.672 53.1455 37.308C52.7495 37.944 52.4075 38.508 52.1195 39H50.6255V29.64H52.2455V36.372C52.5575 35.856 52.9115 35.292 53.3075 34.68C53.7035 34.056 54.1115 33.444 54.5315 32.844C54.9635 32.232 55.3895 31.65 55.8095 31.098C56.2415 30.534 56.6435 30.048 57.0155 29.64H58.4915ZM63.0038 37.74C63.0758 37.752 63.1778 37.764 63.3098 37.776C63.4418 37.788 63.5918 37.8 63.7598 37.812C63.9278 37.812 64.1018 37.818 64.2818 37.83C64.4738 37.83 64.6538 37.83 64.8218 37.83C65.1698 37.83 65.4998 37.806 65.8118 37.758C66.1358 37.71 66.4118 37.626 66.6398 37.506C66.8798 37.386 67.0658 37.23 67.1978 37.038C67.3418 36.834 67.4138 36.576 67.4138 36.264C67.4138 35.964 67.3478 35.718 67.2158 35.526C67.0958 35.322 66.9278 35.16 66.7118 35.04C66.4958 34.92 66.2378 34.836 65.9378 34.788C65.6498 34.74 65.3378 34.716 65.0018 34.716H63.0038V37.74ZM64.7858 33.474C65.1098 33.474 65.4038 33.456 65.6678 33.42C65.9438 33.372 66.1778 33.294 66.3698 33.186C66.5738 33.078 66.7298 32.934 66.8378 32.754C66.9578 32.574 67.0178 32.346 67.0178 32.07C67.0178 31.782 66.9458 31.554 66.8018 31.386C66.6578 31.218 66.4658 31.092 66.2258 31.008C65.9978 30.912 65.7338 30.852 65.4338 30.828C65.1458 30.792 64.8518 30.774 64.5518 30.774C64.2758 30.774 63.9938 30.78 63.7058 30.792C63.4298 30.804 63.1958 30.816 63.0038 30.828V33.474H64.7858ZM64.7498 39.162C64.0418 39.162 63.3878 39.126 62.7878 39.054C62.1878 38.994 61.7138 38.922 61.3658 38.838V29.73C61.7138 29.646 62.1878 29.574 62.7878 29.514C63.3878 29.442 64.0418 29.406 64.7498 29.406C65.2418 29.406 65.7218 29.448 66.1898 29.532C66.6578 29.616 67.0718 29.76 67.4318 29.964C67.7918 30.156 68.0798 30.426 68.2958 30.774C68.5238 31.11 68.6378 31.53 68.6378 32.034C68.6378 32.49 68.5238 32.88 68.2958 33.204C68.0678 33.528 67.7618 33.78 67.3778 33.96C67.8938 34.14 68.3018 34.41 68.6018 34.77C68.9138 35.118 69.0698 35.61 69.0698 36.246C69.0698 36.81 68.9558 37.278 68.7278 37.65C68.5118 38.022 68.2058 38.322 67.8098 38.55C67.4258 38.778 66.9698 38.934 66.4418 39.018C65.9138 39.114 65.3498 39.162 64.7498 39.162ZM70.7051 34.338C70.7051 33.51 70.8251 32.79 71.0651 32.178C71.3051 31.554 71.6231 31.038 72.0191 30.63C72.4151 30.222 72.8711 29.916 73.3871 29.712C73.9031 29.508 74.4311 29.406 74.9711 29.406C76.2311 29.406 77.1971 29.802 77.8691 30.594C78.5411 31.374 78.8771 32.568 78.8771 34.176C78.8771 34.248 78.8771 34.344 78.8771 34.464C78.8771 34.572 78.8711 34.674 78.8591 34.77H72.4511C72.5231 35.742 72.8051 36.48 73.2971 36.984C73.7891 37.488 74.5571 37.74 75.6011 37.74C76.1891 37.74 76.6811 37.692 77.0771 37.596C77.4851 37.488 77.7911 37.386 77.9951 37.29L78.2291 38.694C78.0251 38.802 77.6651 38.916 77.1491 39.036C76.6451 39.156 76.0691 39.216 75.4211 39.216C74.6051 39.216 73.8971 39.096 73.2971 38.856C72.7091 38.604 72.2231 38.262 71.8391 37.83C71.4551 37.398 71.1671 36.888 70.9751 36.3C70.7951 35.7 70.7051 35.046 70.7051 34.338ZM77.1311 33.42C77.1431 32.664 76.9511 32.046 76.5551 31.566C76.1711 31.074 75.6371 30.828 74.9531 30.828C74.5691 30.828 74.2271 30.906 73.9271 31.062C73.6391 31.206 73.3931 31.398 73.1891 31.638C72.9851 31.878 72.8231 32.154 72.7031 32.466C72.5951 32.778 72.5231 33.096 72.4871 33.42H77.1311ZM87.8878 29.64V31.044H84.8458V39H83.1718V31.044H80.1298V29.64H87.8878ZM90.6993 33.618C90.6993 32.082 90.4773 30.66 90.0333 29.352C89.5893 28.044 88.9353 26.832 88.0713 25.716L89.2593 24.906C90.1953 26.046 90.9453 27.36 91.5093 28.848C92.0853 30.324 92.3733 31.914 92.3733 33.618C92.3733 35.322 92.0853 36.918 91.5093 38.406C90.9453 39.882 90.1953 41.19 89.2593 42.33L88.0713 41.52C88.9353 40.404 89.5893 39.192 90.0333 37.884C90.4773 36.576 90.6993 35.154 90.6993 33.618ZM96.5353 33.618C96.5353 32.082 96.3133 30.66 95.8693 29.352C95.4253 28.044 94.7713 26.832 93.9073 25.716L95.0953 24.906C96.0313 26.046 96.7813 27.36 97.3453 28.848C97.9213 30.324 98.2093 31.914 98.2093 33.618C98.2093 35.322 97.9213 36.918 97.3453 38.406C96.7813 39.882 96.0313 41.19 95.0953 42.33L93.9073 41.52C94.7713 40.404 95.4253 39.192 95.8693 37.884C96.3133 36.576 96.5353 35.154 96.5353 33.618Z" fill="black"/>
<path d="M21 82.5H179C189.77 82.5 198.5 91.2304 198.5 102V124C198.5 134.77 189.77 143.5 179 143.5H5C3.067 143.5 1.5 141.933 1.5 140V102C1.5 91.2304 10.2304 82.5 21 82.5Z" stroke="#E31E24" stroke-width="3" stroke-linecap="round" stroke-linejoin="round"/>
<path d="M33.882 120C33.678 119.46 33.486 118.932 33.306 118.416C33.126 117.888 32.94 117.354 32.748 116.814H27.096L25.962 120H24.144C24.624 118.68 25.074 117.462 25.494 116.346C25.914 115.218 26.322 114.15 26.718 113.142C27.126 112.134 27.528 111.174 27.924 110.262C28.32 109.338 28.734 108.426 29.166 107.526H30.768C31.2 108.426 31.614 109.338 32.01 110.262C32.406 111.174 32.802 112.134 33.198 113.142C33.606 114.15 34.02 115.218 34.44 116.346C34.86 117.462 35.31 118.68 35.79 120H33.882ZM32.244 115.374C31.86 114.33 31.476 113.322 31.092 112.35C30.72 111.366 30.33 110.424 29.922 109.524C29.502 110.424 29.1 111.366 28.716 112.35C28.344 113.322 27.972 114.33 27.6 115.374H32.244ZM44.9616 114.906C45.3336 115.17 45.7356 115.506 46.1676 115.914C46.5996 116.31 47.0196 116.742 47.4276 117.21C47.8476 117.678 48.2376 118.158 48.5976 118.65C48.9576 119.13 49.2636 119.58 49.5156 120H47.5356C47.2716 119.592 46.9596 119.178 46.5996 118.758C46.2516 118.326 45.8856 117.912 45.5016 117.516C45.1176 117.12 44.7276 116.754 44.3316 116.418C43.9356 116.082 43.5636 115.8 43.2156 115.572V120H41.5416V110.64H43.2156V114.654C43.5036 114.378 43.8336 114.06 44.2056 113.7C44.5776 113.328 44.9496 112.956 45.3216 112.584C45.7056 112.2 46.0596 111.84 46.3836 111.504C46.7076 111.156 46.9716 110.868 47.1756 110.64H49.1196C48.8556 110.928 48.5436 111.258 48.1836 111.63C47.8356 111.99 47.4696 112.362 47.0856 112.746C46.7136 113.13 46.3416 113.514 45.9696 113.898C45.5976 114.27 45.2616 114.606 44.9616 114.906ZM54.3775 118.794C54.7735 118.794 55.1215 118.788 55.4215 118.776C55.7335 118.752 55.9915 118.716 56.1955 118.668V115.878C56.0755 115.818 55.8775 115.77 55.6015 115.734C55.3375 115.686 55.0135 115.662 54.6295 115.662C54.3775 115.662 54.1075 115.68 53.8195 115.716C53.5435 115.752 53.2855 115.83 53.0455 115.95C52.8175 116.058 52.6255 116.214 52.4695 116.418C52.3135 116.61 52.2355 116.868 52.2355 117.192C52.2355 117.792 52.4275 118.212 52.8115 118.452C53.1955 118.68 53.7175 118.794 54.3775 118.794ZM54.2335 110.406C54.9055 110.406 55.4695 110.496 55.9255 110.676C56.3935 110.844 56.7655 111.09 57.0415 111.414C57.3295 111.726 57.5335 112.104 57.6535 112.548C57.7735 112.98 57.8335 113.46 57.8335 113.988V119.838C57.6895 119.862 57.4855 119.898 57.2215 119.946C56.9695 119.982 56.6815 120.018 56.3575 120.054C56.0335 120.09 55.6795 120.12 55.2955 120.144C54.9235 120.18 54.5515 120.198 54.1795 120.198C53.6515 120.198 53.1655 120.144 52.7215 120.036C52.2775 119.928 51.8935 119.76 51.5695 119.532C51.2455 119.292 50.9935 118.98 50.8135 118.596C50.6335 118.212 50.5435 117.75 50.5435 117.21C50.5435 116.694 50.6455 116.25 50.8495 115.878C51.0655 115.506 51.3535 115.206 51.7135 114.978C52.0735 114.75 52.4935 114.582 52.9735 114.474C53.4535 114.366 53.9575 114.312 54.4855 114.312C54.6535 114.312 54.8275 114.324 55.0075 114.348C55.1875 114.36 55.3555 114.384 55.5115 114.42C55.6795 114.444 55.8235 114.468 55.9435 114.492C56.0635 114.516 56.1475 114.534 56.1955 114.546V114.078C56.1955 113.802 56.1655 113.532 56.1055 113.268C56.0455 112.992 55.9375 112.752 55.7815 112.548C55.6255 112.332 55.4095 112.164 55.1335 112.044C54.8695 111.912 54.5215 111.846 54.0895 111.846C53.5375 111.846 53.0515 111.888 52.6315 111.972C52.2235 112.044 51.9175 112.122 51.7135 112.206L51.5155 110.82C51.7315 110.724 52.0915 110.634 52.5955 110.55C53.0995 110.454 53.6455 110.406 54.2335 110.406ZM64.0338 114.906C64.4058 115.17 64.8078 115.506 65.2398 115.914C65.6718 116.31 66.0918 116.742 66.4998 117.21C66.9198 117.678 67.3098 118.158 67.6698 118.65C68.0298 119.13 68.3358 119.58 68.5878 120H66.6078C66.3438 119.592 66.0318 119.178 65.6718 118.758C65.3238 118.326 64.9578 117.912 64.5738 117.516C64.1898 117.12 63.7998 116.754 63.4038 116.418C63.0078 116.082 62.6358 115.8 62.2878 115.572V120H60.6138V110.64H62.2878V114.654C62.5758 114.378 62.9058 114.06 63.2778 113.7C63.6498 113.328 64.0218 112.956 64.3938 112.584C64.7778 112.2 65.1318 111.84 65.4558 111.504C65.7798 111.156 66.0438 110.868 66.2478 110.64H68.1918C67.9278 110.928 67.6158 111.258 67.2558 111.63C66.9078 111.99 66.5418 112.362 66.1578 112.746C65.7858 113.13 65.4138 113.514 65.0418 113.898C64.6698 114.27 64.3338 114.606 64.0338 114.906ZM81.0538 110.64V112.044H78.0118V120H76.3378V112.044H73.2958V110.64H81.0538ZM82.2578 115.338C82.2578 114.51 82.3778 113.79 82.6178 113.178C82.8578 112.554 83.1758 112.038 83.5718 111.63C83.9678 111.222 84.4238 110.916 84.9398 110.712C85.4558 110.508 85.9838 110.406 86.5238 110.406C87.7838 110.406 88.7498 110.802 89.4218 111.594C90.0938 112.374 90.4298 113.568 90.4298 115.176C90.4298 115.248 90.4298 115.344 90.4298 115.464C90.4298 115.572 90.4238 115.674 90.4118 115.77H84.0038C84.0758 116.742 84.3578 117.48 84.8498 117.984C85.3418 118.488 86.1098 118.74 87.1538 118.74C87.7418 118.74 88.2338 118.692 88.6298 118.596C89.0378 118.488 89.3438 118.386 89.5478 118.29L89.7818 119.694C89.5778 119.802 89.2178 119.916 88.7018 120.036C88.1978 120.156 87.6218 120.216 86.9738 120.216C86.1578 120.216 85.4498 120.096 84.8498 119.856C84.2618 119.604 83.7758 119.262 83.3918 118.83C83.0078 118.398 82.7198 117.888 82.5278 117.3C82.3478 116.7 82.2578 116.046 82.2578 115.338ZM88.6838 114.42C88.6958 113.664 88.5038 113.046 88.1078 112.566C87.7238 112.074 87.1898 111.828 86.5058 111.828C86.1218 111.828 85.7798 111.906 85.4798 112.062C85.1918 112.206 84.9458 112.398 84.7418 112.638C84.5378 112.878 84.3758 113.154 84.2558 113.466C84.1478 113.778 84.0758 114.096 84.0398 114.42H88.6838ZM94.3465 111.72C94.7185 111.42 95.1505 111.192 95.6425 111.036C96.1465 110.868 96.6265 110.784 97.0825 110.784C98.4265 110.784 99.4405 111.198 100.125 112.026C100.821 112.842 101.169 113.982 101.169 115.446C101.169 116.07 101.085 116.67 100.917 117.246C100.749 117.822 100.485 118.332 100.125 118.776C99.7765 119.22 99.3325 119.574 98.7925 119.838C98.2525 120.102 97.6105 120.234 96.8665 120.234C96.0145 120.234 95.3065 120.078 94.7425 119.766C94.1785 119.454 93.7285 119.028 93.3925 118.488C93.0685 117.948 92.8405 117.318 92.7085 116.598C92.5765 115.878 92.5105 115.116 92.5105 114.312C92.5105 113.268 92.5825 112.296 92.7265 111.396C92.8825 110.496 93.1585 109.704 93.5545 109.02C93.9505 108.336 94.4965 107.772 95.1925 107.328C95.9005 106.872 96.8065 106.566 97.9105 106.41C98.2345 106.362 98.5165 106.326 98.7565 106.302C99.0085 106.266 99.2245 106.236 99.4045 106.212C99.5965 106.188 99.7705 106.164 99.9265 106.14C100.083 106.104 100.245 106.068 100.413 106.032L100.593 107.544C100.509 107.568 100.419 107.586 100.323 107.598C100.239 107.61 100.113 107.628 99.9445 107.652C99.7885 107.676 99.5725 107.706 99.2965 107.742C99.0325 107.778 98.6845 107.82 98.2525 107.868C97.0645 108 96.1525 108.36 95.5165 108.948C94.8805 109.536 94.4905 110.46 94.3465 111.72ZM94.2385 114.582C94.2385 115.146 94.2745 115.68 94.3465 116.184C94.4305 116.688 94.5685 117.132 94.7605 117.516C94.9645 117.9 95.2345 118.206 95.5705 118.434C95.9065 118.65 96.3385 118.758 96.8665 118.758C97.3225 118.758 97.7125 118.674 98.0365 118.506C98.3605 118.326 98.6245 118.086 98.8285 117.786C99.0325 117.486 99.1825 117.138 99.2785 116.742C99.3745 116.334 99.4225 115.902 99.4225 115.446C99.4225 115.038 99.3805 114.642 99.2965 114.258C99.2245 113.874 99.0865 113.532 98.8825 113.232C98.6785 112.932 98.4025 112.692 98.0545 112.512C97.7185 112.332 97.2925 112.242 96.7765 112.242C96.2725 112.242 95.7865 112.35 95.3185 112.566C94.8625 112.782 94.5085 113.046 94.2565 113.358C94.2445 113.49 94.2385 113.676 94.2385 113.916C94.2385 114.156 94.2385 114.378 94.2385 114.582ZM107.41 116.364C107.23 116.364 107.056 116.364 106.888 116.364C106.72 116.352 106.558 116.34 106.402 116.328C106.018 116.904 105.646 117.522 105.286 118.182C104.938 118.83 104.626 119.436 104.35 120H102.658C102.802 119.652 102.97 119.298 103.162 118.938C103.354 118.566 103.546 118.206 103.738 117.858C103.942 117.51 104.146 117.18 104.35 116.868C104.554 116.556 104.746 116.274 104.926 116.022C104.59 115.902 104.314 115.758 104.098 115.59C103.882 115.41 103.708 115.212 103.576 114.996C103.444 114.78 103.348 114.552 103.288 114.312C103.24 114.06 103.216 113.808 103.216 113.556C103.216 113.028 103.312 112.566 103.504 112.17C103.708 111.774 103.984 111.45 104.332 111.198C104.68 110.934 105.088 110.736 105.556 110.604C106.036 110.472 106.558 110.406 107.122 110.406C107.914 110.406 108.586 110.442 109.138 110.514C109.69 110.586 110.152 110.67 110.524 110.766V120H108.868V116.364H107.41ZM108.868 111.882C108.736 111.858 108.514 111.834 108.202 111.81C107.902 111.786 107.554 111.774 107.158 111.774C106.474 111.774 105.922 111.918 105.502 112.206C105.082 112.482 104.872 112.926 104.872 113.538C104.872 114.138 105.088 114.552 105.52 114.78C105.952 115.008 106.51 115.122 107.194 115.122H108.868V111.882ZM119.943 110.406C120.483 110.406 120.987 110.46 121.455 110.568C121.923 110.676 122.325 110.838 122.661 111.054C122.997 111.27 123.261 111.54 123.453 111.864C123.645 112.188 123.741 112.566 123.741 112.998C123.741 113.274 123.693 113.526 123.597 113.754C123.501 113.982 123.381 114.186 123.237 114.366C123.093 114.546 122.931 114.702 122.751 114.834C122.583 114.954 122.421 115.038 122.265 115.086C122.817 115.254 123.249 115.554 123.561 115.986C123.885 116.406 124.047 116.94 124.047 117.588C124.047 118.476 123.687 119.136 122.967 119.568C122.247 120 121.269 120.216 120.033 120.216C119.277 120.216 118.623 120.156 118.071 120.036C117.531 119.916 117.147 119.802 116.919 119.694L117.207 118.272C117.399 118.344 117.741 118.446 118.233 118.578C118.737 118.698 119.337 118.758 120.033 118.758C120.789 118.758 121.365 118.644 121.761 118.416C122.157 118.176 122.355 117.822 122.355 117.354C122.355 117.018 122.277 116.748 122.121 116.544C121.977 116.328 121.791 116.166 121.563 116.058C121.335 115.95 121.089 115.878 120.825 115.842C120.561 115.806 120.315 115.788 120.087 115.788H118.521V114.456H120.033C120.249 114.456 120.471 114.444 120.699 114.42C120.939 114.384 121.155 114.318 121.347 114.222C121.551 114.126 121.719 113.994 121.851 113.826C121.983 113.646 122.049 113.412 122.049 113.124C122.049 112.896 121.989 112.704 121.869 112.548C121.761 112.38 121.611 112.242 121.419 112.134C121.227 112.026 120.999 111.948 120.735 111.9C120.483 111.84 120.219 111.81 119.943 111.81C119.727 111.81 119.493 111.828 119.241 111.864C118.989 111.9 118.743 111.948 118.503 112.008C118.263 112.056 118.047 112.11 117.855 112.17C117.663 112.23 117.525 112.284 117.441 112.332L117.135 110.892C117.231 110.856 117.381 110.808 117.585 110.748C117.789 110.688 118.017 110.634 118.269 110.586C118.533 110.538 118.809 110.496 119.097 110.46C119.385 110.424 119.667 110.406 119.943 110.406ZM134.636 115.32C134.636 116.064 134.528 116.736 134.312 117.336C134.096 117.936 133.79 118.452 133.394 118.884C133.01 119.316 132.548 119.652 132.008 119.892C131.468 120.12 130.88 120.234 130.244 120.234C129.608 120.234 129.02 120.12 128.48 119.892C127.94 119.652 127.472 119.316 127.076 118.884C126.692 118.452 126.392 117.936 126.176 117.336C125.96 116.736 125.852 116.064 125.852 115.32C125.852 114.588 125.96 113.922 126.176 113.322C126.392 112.71 126.692 112.188 127.076 111.756C127.472 111.324 127.94 110.994 128.48 110.766C129.02 110.526 129.608 110.406 130.244 110.406C130.88 110.406 131.468 110.526 132.008 110.766C132.548 110.994 133.01 111.324 133.394 111.756C133.79 112.188 134.096 112.71 134.312 113.322C134.528 113.922 134.636 114.588 134.636 115.32ZM132.89 115.32C132.89 114.264 132.65 113.43 132.17 112.818C131.702 112.194 131.06 111.882 130.244 111.882C129.428 111.882 128.78 112.194 128.3 112.818C127.832 113.43 127.598 114.264 127.598 115.32C127.598 116.376 127.832 117.216 128.3 117.84C128.78 118.452 129.428 118.758 130.244 118.758C131.06 118.758 131.702 118.452 132.17 117.84C132.65 117.216 132.89 116.376 132.89 115.32ZM138.629 118.74C138.701 118.752 138.803 118.764 138.935 118.776C139.067 118.788 139.217 118.8 139.385 118.812C139.553 118.812 139.727 118.818 139.907 118.83C140.099 118.83 140.279 118.83 140.447 118.83C140.795 118.83 141.125 118.806 141.437 118.758C141.761 118.71 142.037 118.626 142.265 118.506C142.505 118.386 142.691 118.23 142.823 118.038C142.967 117.834 143.039 117.576 143.039 117.264C143.039 116.964 142.973 116.718 142.841 116.526C142.721 116.322 142.553 116.16 142.337 116.04C142.121 115.92 141.863 115.836 141.563 115.788C141.275 115.74 140.963 115.716 140.627 115.716H138.629V118.74ZM140.411 114.474C140.735 114.474 141.029 114.456 141.293 114.42C141.569 114.372 141.803 114.294 141.995 114.186C142.199 114.078 142.355 113.934 142.463 113.754C142.583 113.574 142.643 113.346 142.643 113.07C142.643 112.782 142.571 112.554 142.427 112.386C142.283 112.218 142.091 112.092 141.851 112.008C141.623 111.912 141.359 111.852 141.059 111.828C140.771 111.792 140.477 111.774 140.177 111.774C139.901 111.774 139.619 111.78 139.331 111.792C139.055 111.804 138.821 111.816 138.629 111.828V114.474H140.411ZM140.375 120.162C139.667 120.162 139.013 120.126 138.413 120.054C137.813 119.994 137.339 119.922 136.991 119.838V110.73C137.339 110.646 137.813 110.574 138.413 110.514C139.013 110.442 139.667 110.406 140.375 110.406C140.867 110.406 141.347 110.448 141.815 110.532C142.283 110.616 142.697 110.76 143.057 110.964C143.417 111.156 143.705 111.426 143.921 111.774C144.149 112.11 144.263 112.53 144.263 113.034C144.263 113.49 144.149 113.88 143.921 114.204C143.693 114.528 143.387 114.78 143.003 114.96C143.519 115.14 143.927 115.41 144.227 115.77C144.539 116.118 144.695 116.61 144.695 117.246C144.695 117.81 144.581 118.278 144.353 118.65C144.137 119.022 143.831 119.322 143.435 119.55C143.051 119.778 142.595 119.934 142.067 120.018C141.539 120.114 140.975 120.162 140.375 120.162ZM145.754 121.746C145.886 121.806 146.054 121.86 146.258 121.908C146.474 121.968 146.684 121.998 146.888 121.998C147.548 121.998 148.064 121.848 148.436 121.548C148.808 121.26 149.144 120.786 149.444 120.126C148.688 118.686 147.98 117.162 147.32 115.554C146.672 113.934 146.132 112.296 145.7 110.64H147.5C147.632 111.18 147.788 111.762 147.968 112.386C148.16 113.01 148.37 113.652 148.598 114.312C148.826 114.972 149.072 115.632 149.336 116.292C149.6 116.952 149.876 117.588 150.164 118.2C150.62 116.94 151.016 115.692 151.352 114.456C151.688 113.22 152.006 111.948 152.306 110.64H154.034C153.602 112.404 153.122 114.102 152.594 115.734C152.066 117.354 151.496 118.872 150.884 120.288C150.644 120.828 150.392 121.29 150.128 121.674C149.876 122.07 149.594 122.394 149.282 122.646C148.97 122.898 148.616 123.084 148.22 123.204C147.836 123.324 147.398 123.384 146.906 123.384C146.774 123.384 146.636 123.372 146.492 123.348C146.348 123.336 146.204 123.312 146.06 123.276C145.928 123.252 145.802 123.222 145.682 123.186C145.574 123.15 145.496 123.12 145.448 123.096L145.754 121.746ZM162.792 110.64V112.044H159.75V120H158.076V112.044H155.034V110.64H162.792ZM165.331 108.642C164.539 108.642 163.765 108.846 163.009 109.254L162.541 107.958C162.949 107.742 163.405 107.568 163.909 107.436C164.425 107.304 164.971 107.238 165.547 107.238C166.231 107.238 166.789 107.334 167.221 107.526C167.665 107.706 168.019 107.94 168.283 108.228C168.547 108.516 168.727 108.84 168.823 109.2C168.931 109.548 168.985 109.884 168.985 110.208C168.985 110.616 168.907 110.982 168.751 111.306C168.595 111.618 168.403 111.912 168.175 112.188C167.947 112.464 167.695 112.728 167.419 112.98C167.143 113.232 166.891 113.496 166.663 113.772C166.435 114.036 166.243 114.33 166.087 114.654C165.931 114.966 165.853 115.32 165.853 115.716C165.853 115.776 165.853 115.842 165.853 115.914C165.853 115.986 165.859 116.052 165.871 116.112H164.467C164.419 115.872 164.395 115.62 164.395 115.356C164.395 114.972 164.461 114.624 164.593 114.312C164.737 114 164.917 113.712 165.133 113.448C165.349 113.172 165.577 112.92 165.817 112.692C166.057 112.452 166.285 112.212 166.501 111.972C166.717 111.732 166.891 111.48 167.023 111.216C167.167 110.952 167.239 110.664 167.239 110.352C167.239 109.848 167.077 109.44 166.753 109.128C166.429 108.804 165.955 108.642 165.331 108.642ZM166.465 119.028C166.465 119.352 166.357 119.634 166.141 119.874C165.925 120.114 165.631 120.234 165.259 120.234C164.887 120.234 164.593 120.114 164.377 119.874C164.161 119.634 164.053 119.352 164.053 119.028C164.053 118.704 164.161 118.422 164.377 118.182C164.593 117.942 164.887 117.822 165.259 117.822C165.631 117.822 165.925 117.942 166.141 118.182C166.357 118.422 166.465 118.704 166.465 119.028ZM172.231 114.618C172.231 113.082 172.009 111.66 171.565 110.352C171.121 109.044 170.467 107.832 169.603 106.716L170.791 105.906C171.727 107.046 172.477 108.36 173.041 109.848C173.617 111.324 173.905 112.914 173.905 114.618C173.905 116.322 173.617 117.918 173.041 119.406C172.477 120.882 171.727 122.19 170.791 123.33L169.603 122.52C170.467 121.404 171.121 120.192 171.565 118.884C172.009 117.576 172.231 116.154 172.231 114.618Z" fill="black"/>
<path d="M21 253.5H170C180.77 253.5 189.5 262.23 189.5 273V318C189.5 328.77 180.77 337.5 170 337.5H5C3.067 337.5 1.5 335.933 1.5 334V273C1.5 262.23 10.2304 253.5 21 253.5Z" stroke="#E31E24" stroke-width="3" stroke-linecap="round" stroke-linejoin="round"/>
<path d="M36.396 279.526H38.142V292H36.396V286.24H30.294V292H28.548V279.526H30.294V284.728H36.396V279.526ZM44.2994 290.794C44.6954 290.794 45.0434 290.788 45.3434 290.776C45.6554 290.752 45.9134 290.716 46.1174 290.668V287.878C45.9974 287.818 45.7994 287.77 45.5234 287.734C45.2594 287.686 44.9354 287.662 44.5514 287.662C44.2994 287.662 44.0294 287.68 43.7414 287.716C43.4654 287.752 43.2074 287.83 42.9674 287.95C42.7394 288.058 42.5474 288.214 42.3914 288.418C42.2354 288.61 42.1574 288.868 42.1574 289.192C42.1574 289.792 42.3494 290.212 42.7334 290.452C43.1174 290.68 43.6394 290.794 44.2994 290.794ZM44.1554 282.406C44.8274 282.406 45.3914 282.496 45.8474 282.676C46.3154 282.844 46.6874 283.09 46.9634 283.414C47.2514 283.726 47.4554 284.104 47.5754 284.548C47.6954 284.98 47.7554 285.46 47.7554 285.988V291.838C47.6114 291.862 47.4074 291.898 47.1434 291.946C46.8914 291.982 46.6034 292.018 46.2794 292.054C45.9554 292.09 45.6014 292.12 45.2174 292.144C44.8454 292.18 44.4734 292.198 44.1014 292.198C43.5734 292.198 43.0874 292.144 42.6434 292.036C42.1994 291.928 41.8154 291.76 41.4914 291.532C41.1674 291.292 40.9154 290.98 40.7354 290.596C40.5554 290.212 40.4654 289.75 40.4654 289.21C40.4654 288.694 40.5674 288.25 40.7714 287.878C40.9874 287.506 41.2754 287.206 41.6354 286.978C41.9954 286.75 42.4154 286.582 42.8954 286.474C43.3754 286.366 43.8794 286.312 44.4074 286.312C44.5754 286.312 44.7494 286.324 44.9294 286.348C45.1094 286.36 45.2774 286.384 45.4334 286.42C45.6014 286.444 45.7454 286.468 45.8654 286.492C45.9854 286.516 46.0694 286.534 46.1174 286.546V286.078C46.1174 285.802 46.0874 285.532 46.0274 285.268C45.9674 284.992 45.8594 284.752 45.7034 284.548C45.5474 284.332 45.3314 284.164 45.0554 284.044C44.7914 283.912 44.4434 283.846 44.0114 283.846C43.4594 283.846 42.9734 283.888 42.5534 283.972C42.1454 284.044 41.8394 284.122 41.6354 284.206L41.4374 282.82C41.6534 282.724 42.0134 282.634 42.5174 282.55C43.0214 282.454 43.5674 282.406 44.1554 282.406ZM54.6037 292.216C53.8477 292.216 53.1817 292.096 52.6057 291.856C52.0417 291.616 51.5617 291.28 51.1657 290.848C50.7817 290.416 50.4937 289.906 50.3017 289.318C50.1097 288.718 50.0137 288.058 50.0137 287.338C50.0137 286.618 50.1157 285.958 50.3197 285.358C50.5357 284.758 50.8357 284.242 51.2197 283.81C51.6037 283.366 52.0717 283.024 52.6237 282.784C53.1877 282.532 53.8117 282.406 54.4957 282.406C54.9157 282.406 55.3357 282.442 55.7557 282.514C56.1757 282.586 56.5777 282.7 56.9617 282.856L56.5837 284.278C56.3317 284.158 56.0377 284.062 55.7017 283.99C55.3777 283.918 55.0297 283.882 54.6577 283.882C53.7217 283.882 53.0017 284.176 52.4977 284.764C52.0057 285.352 51.7597 286.21 51.7597 287.338C51.7597 287.842 51.8137 288.304 51.9217 288.724C52.0417 289.144 52.2217 289.504 52.4617 289.804C52.7137 290.104 53.0317 290.338 53.4157 290.506C53.7997 290.662 54.2677 290.74 54.8197 290.74C55.2637 290.74 55.6657 290.698 56.0257 290.614C56.3857 290.53 56.6677 290.44 56.8717 290.344L57.1057 291.748C57.0097 291.808 56.8717 291.868 56.6917 291.928C56.5117 291.976 56.3077 292.018 56.0797 292.054C55.8517 292.102 55.6057 292.138 55.3417 292.162C55.0897 292.198 54.8437 292.216 54.6037 292.216ZM65.7726 282.64V284.044H62.7306V292H61.0566V284.044H58.0146V282.64H65.7726ZM71.3686 288.364C71.1886 288.364 71.0146 288.364 70.8466 288.364C70.6786 288.352 70.5166 288.34 70.3606 288.328C69.9766 288.904 69.6046 289.522 69.2446 290.182C68.8966 290.83 68.5846 291.436 68.3086 292H66.6166C66.7606 291.652 66.9286 291.298 67.1206 290.938C67.3126 290.566 67.5046 290.206 67.6966 289.858C67.9006 289.51 68.1046 289.18 68.3086 288.868C68.5126 288.556 68.7046 288.274 68.8846 288.022C68.5486 287.902 68.2726 287.758 68.0566 287.59C67.8406 287.41 67.6666 287.212 67.5346 286.996C67.4026 286.78 67.3066 286.552 67.2466 286.312C67.1986 286.06 67.1746 285.808 67.1746 285.556C67.1746 285.028 67.2706 284.566 67.4626 284.17C67.6666 283.774 67.9426 283.45 68.2906 283.198C68.6386 282.934 69.0466 282.736 69.5146 282.604C69.9946 282.472 70.5166 282.406 71.0806 282.406C71.8726 282.406 72.5446 282.442 73.0966 282.514C73.6486 282.586 74.1106 282.67 74.4826 282.766V292H72.8266V288.364H71.3686ZM72.8266 283.882C72.6946 283.858 72.4726 283.834 72.1606 283.81C71.8606 283.786 71.5126 283.774 71.1166 283.774C70.4326 283.774 69.8806 283.918 69.4606 284.206C69.0406 284.482 68.8306 284.926 68.8306 285.538C68.8306 286.138 69.0466 286.552 69.4786 286.78C69.9106 287.008 70.4686 287.122 71.1526 287.122H72.8266V283.882ZM79.3399 291.028C79.3399 291.352 79.2319 291.634 79.0159 291.874C78.7999 292.114 78.5059 292.234 78.1339 292.234C77.7619 292.234 77.4679 292.114 77.2519 291.874C77.0359 291.634 76.9279 291.352 76.9279 291.028C76.9279 290.704 77.0359 290.422 77.2519 290.182C77.4679 289.942 77.7619 289.822 78.1339 289.822C78.5059 289.822 78.7999 289.942 79.0159 290.182C79.2319 290.422 79.3399 290.704 79.3399 291.028ZM95.5496 279.526V292H93.8036V281.02H87.8096V292H86.0636V279.526H95.5496ZM105.04 287.338C105.04 286.246 104.77 285.406 104.23 284.818C103.69 284.23 102.97 283.936 102.07 283.936C101.566 283.936 101.17 283.954 100.882 283.99C100.606 284.026 100.384 284.068 100.216 284.116V290.02C100.42 290.188 100.714 290.35 101.098 290.506C101.482 290.662 101.902 290.74 102.358 290.74C102.838 290.74 103.246 290.656 103.582 290.488C103.93 290.308 104.212 290.068 104.428 289.768C104.644 289.456 104.8 289.096 104.896 288.688C104.992 288.268 105.04 287.818 105.04 287.338ZM106.786 287.338C106.786 288.046 106.69 288.7 106.498 289.3C106.318 289.9 106.048 290.416 105.688 290.848C105.328 291.28 104.884 291.616 104.356 291.856C103.84 292.096 103.246 292.216 102.574 292.216C102.034 292.216 101.554 292.144 101.134 292C100.726 291.856 100.42 291.718 100.216 291.586V295.33H98.5416V282.928C98.9376 282.832 99.4296 282.73 100.018 282.622C100.618 282.502 101.308 282.442 102.088 282.442C102.808 282.442 103.456 282.556 104.032 282.784C104.608 283.012 105.1 283.336 105.508 283.756C105.916 284.176 106.228 284.692 106.444 285.304C106.672 285.904 106.786 286.582 106.786 287.338ZM117.007 282.64V292H115.387V284.872C115.027 285.328 114.631 285.862 114.199 286.474C113.767 287.086 113.335 287.722 112.903 288.382C112.471 289.03 112.057 289.672 111.661 290.308C111.265 290.944 110.923 291.508 110.635 292H109.141V282.64H110.761V289.372C111.073 288.856 111.427 288.292 111.823 287.68C112.219 287.056 112.627 286.444 113.047 285.844C113.479 285.232 113.905 284.65 114.325 284.098C114.757 283.534 115.159 283.048 115.531 282.64H117.007ZM123.751 288.364C123.571 288.364 123.397 288.364 123.229 288.364C123.061 288.352 122.899 288.34 122.743 288.328C122.359 288.904 121.987 289.522 121.627 290.182C121.279 290.83 120.967 291.436 120.691 292H118.999C119.143 291.652 119.311 291.298 119.503 290.938C119.695 290.566 119.887 290.206 120.079 289.858C120.283 289.51 120.487 289.18 120.691 288.868C120.895 288.556 121.087 288.274 121.267 288.022C120.931 287.902 120.655 287.758 120.439 287.59C120.223 287.41 120.049 287.212 119.917 286.996C119.785 286.78 119.689 286.552 119.629 286.312C119.581 286.06 119.557 285.808 119.557 285.556C119.557 285.028 119.653 284.566 119.845 284.17C120.049 283.774 120.325 283.45 120.673 283.198C121.021 282.934 121.429 282.736 121.897 282.604C122.377 282.472 122.899 282.406 123.463 282.406C124.255 282.406 124.927 282.442 125.479 282.514C126.031 282.586 126.493 282.67 126.865 282.766V292H125.209V288.364H123.751ZM125.209 283.882C125.077 283.858 124.855 283.834 124.543 283.81C124.243 283.786 123.895 283.774 123.499 283.774C122.815 283.774 122.263 283.918 121.843 284.206C121.423 284.482 121.213 284.926 121.213 285.538C121.213 286.138 121.429 286.552 121.861 286.78C122.293 287.008 122.851 287.122 123.535 287.122H125.209V283.882ZM136.349 282.64V284.044H133.307V292H131.633V284.044H128.591V282.64H136.349ZM145.743 292H144.069V287.86H139.749V292H138.075V282.64H139.749V286.456H144.069V282.64H145.743V292ZM156.884 287.32C156.884 288.064 156.776 288.736 156.56 289.336C156.344 289.936 156.038 290.452 155.642 290.884C155.258 291.316 154.796 291.652 154.256 291.892C153.716 292.12 153.128 292.234 152.492 292.234C151.856 292.234 151.268 292.12 150.728 291.892C150.188 291.652 149.72 291.316 149.324 290.884C148.94 290.452 148.64 289.936 148.424 289.336C148.208 288.736 148.1 288.064 148.1 287.32C148.1 286.588 148.208 285.922 148.424 285.322C148.64 284.71 148.94 284.188 149.324 283.756C149.72 283.324 150.188 282.994 150.728 282.766C151.268 282.526 151.856 282.406 152.492 282.406C153.128 282.406 153.716 282.526 154.256 282.766C154.796 282.994 155.258 283.324 155.642 283.756C156.038 284.188 156.344 284.71 156.56 285.322C156.776 285.922 156.884 286.588 156.884 287.32ZM155.138 287.32C155.138 286.264 154.898 285.43 154.418 284.818C153.95 284.194 153.308 283.882 152.492 283.882C151.676 283.882 151.028 284.194 150.548 284.818C150.08 285.43 149.846 286.264 149.846 287.32C149.846 288.376 150.08 289.216 150.548 289.84C151.028 290.452 151.676 290.758 152.492 290.758C153.308 290.758 153.95 290.452 154.418 289.84C154.898 289.216 155.138 288.376 155.138 287.32ZM35.964 313H34.29V305.044H30.114V313H28.44V303.64H35.964V313ZM47.1083 308.32C47.1083 309.064 47.0003 309.736 46.7843 310.336C46.5683 310.936 46.2623 311.452 45.8663 311.884C45.4823 312.316 45.0203 312.652 44.4803 312.892C43.9403 313.12 43.3523 313.234 42.7163 313.234C42.0803 313.234 41.4923 313.12 40.9523 312.892C40.4123 312.652 39.9443 312.316 39.5483 311.884C39.1643 311.452 38.8643 310.936 38.6483 310.336C38.4323 309.736 38.3243 309.064 38.3243 308.32C38.3243 307.588 38.4323 306.922 38.6483 306.322C38.8643 305.71 39.1643 305.188 39.5483 304.756C39.9443 304.324 40.4123 303.994 40.9523 303.766C41.4923 303.526 42.0803 303.406 42.7163 303.406C43.3523 303.406 43.9403 303.526 44.4803 303.766C45.0203 303.994 45.4823 304.324 45.8663 304.756C46.2623 305.188 46.5683 305.71 46.7843 306.322C47.0003 306.922 47.1083 307.588 47.1083 308.32ZM45.3623 308.32C45.3623 307.264 45.1223 306.43 44.6423 305.818C44.1743 305.194 43.5323 304.882 42.7163 304.882C41.9003 304.882 41.2523 305.194 40.7723 305.818C40.3043 306.43 40.0703 307.264 40.0703 308.32C40.0703 309.376 40.3043 310.216 40.7723 310.84C41.2523 311.452 41.9003 311.758 42.7163 311.758C43.5323 311.758 44.1743 311.452 44.6423 310.84C45.1223 310.216 45.3623 309.376 45.3623 308.32ZM51.5406 303.406C52.0806 303.406 52.5846 303.46 53.0526 303.568C53.5206 303.676 53.9226 303.838 54.2586 304.054C54.5946 304.27 54.8586 304.54 55.0506 304.864C55.2426 305.188 55.3386 305.566 55.3386 305.998C55.3386 306.274 55.2906 306.526 55.1946 306.754C55.0986 306.982 54.9786 307.186 54.8346 307.366C54.6906 307.546 54.5286 307.702 54.3486 307.834C54.1806 307.954 54.0186 308.038 53.8626 308.086C54.4146 308.254 54.8466 308.554 55.1586 308.986C55.4826 309.406 55.6446 309.94 55.6446 310.588C55.6446 311.476 55.2846 312.136 54.5646 312.568C53.8446 313 52.8666 313.216 51.6306 313.216C50.8746 313.216 50.2206 313.156 49.6686 313.036C49.1286 312.916 48.7446 312.802 48.5166 312.694L48.8046 311.272C48.9966 311.344 49.3386 311.446 49.8306 311.578C50.3346 311.698 50.9346 311.758 51.6306 311.758C52.3866 311.758 52.9626 311.644 53.3586 311.416C53.7546 311.176 53.9526 310.822 53.9526 310.354C53.9526 310.018 53.8746 309.748 53.7186 309.544C53.5746 309.328 53.3886 309.166 53.1606 309.058C52.9326 308.95 52.6866 308.878 52.4226 308.842C52.1586 308.806 51.9126 308.788 51.6846 308.788H50.1186V307.456H51.6306C51.8466 307.456 52.0686 307.444 52.2966 307.42C52.5366 307.384 52.7526 307.318 52.9446 307.222C53.1486 307.126 53.3166 306.994 53.4486 306.826C53.5806 306.646 53.6466 306.412 53.6466 306.124C53.6466 305.896 53.5866 305.704 53.4666 305.548C53.3586 305.38 53.2086 305.242 53.0166 305.134C52.8246 305.026 52.5966 304.948 52.3326 304.9C52.0806 304.84 51.8166 304.81 51.5406 304.81C51.3246 304.81 51.0906 304.828 50.8386 304.864C50.5866 304.9 50.3406 304.948 50.1006 305.008C49.8606 305.056 49.6446 305.11 49.4526 305.17C49.2606 305.23 49.1226 305.284 49.0386 305.332L48.7326 303.892C48.8286 303.856 48.9786 303.808 49.1826 303.748C49.3866 303.688 49.6146 303.634 49.8666 303.586C50.1306 303.538 50.4066 303.496 50.6946 303.46C50.9826 303.424 51.2646 303.406 51.5406 303.406ZM65.6393 313H63.9653V308.86H59.6453V313H57.9713V303.64H59.6453V307.456H63.9653V303.64H65.6393V313ZM71.6861 311.794C72.0821 311.794 72.4301 311.788 72.7301 311.776C73.0421 311.752 73.3001 311.716 73.5041 311.668V308.878C73.3841 308.818 73.1861 308.77 72.9101 308.734C72.6461 308.686 72.3221 308.662 71.9381 308.662C71.6861 308.662 71.4161 308.68 71.1281 308.716C70.8521 308.752 70.5941 308.83 70.3541 308.95C70.1261 309.058 69.9341 309.214 69.7781 309.418C69.6221 309.61 69.5441 309.868 69.5441 310.192C69.5441 310.792 69.7361 311.212 70.1201 311.452C70.5041 311.68 71.0261 311.794 71.6861 311.794ZM71.5421 303.406C72.2141 303.406 72.7781 303.496 73.2341 303.676C73.7021 303.844 74.0741 304.09 74.3501 304.414C74.6381 304.726 74.8421 305.104 74.9621 305.548C75.0821 305.98 75.1421 306.46 75.1421 306.988V312.838C74.9981 312.862 74.7941 312.898 74.5301 312.946C74.2781 312.982 73.9901 313.018 73.6661 313.054C73.3421 313.09 72.9881 313.12 72.6041 313.144C72.2321 313.18 71.8601 313.198 71.4881 313.198C70.9601 313.198 70.4741 313.144 70.0301 313.036C69.5861 312.928 69.2021 312.76 68.8781 312.532C68.5541 312.292 68.3021 311.98 68.1221 311.596C67.9421 311.212 67.8521 310.75 67.8521 310.21C67.8521 309.694 67.9541 309.25 68.1581 308.878C68.3741 308.506 68.6621 308.206 69.0221 307.978C69.3821 307.75 69.8021 307.582 70.2821 307.474C70.7621 307.366 71.2661 307.312 71.7941 307.312C71.9621 307.312 72.1361 307.324 72.3161 307.348C72.4961 307.36 72.6641 307.384 72.8201 307.42C72.9881 307.444 73.1321 307.468 73.2521 307.492C73.3721 307.516 73.4561 307.534 73.5041 307.546V307.078C73.5041 306.802 73.4741 306.532 73.4141 306.268C73.3541 305.992 73.2461 305.752 73.0901 305.548C72.9341 305.332 72.7181 305.164 72.4421 305.044C72.1781 304.912 71.8301 304.846 71.3981 304.846C70.8461 304.846 70.3601 304.888 69.9401 304.972C69.5321 305.044 69.2261 305.122 69.0221 305.206L68.8241 303.82C69.0401 303.724 69.4001 303.634 69.9041 303.55C70.4081 303.454 70.9541 303.406 71.5421 303.406ZM81.3424 307.906C81.7144 308.17 82.1164 308.506 82.5484 308.914C82.9804 309.31 83.4004 309.742 83.8084 310.21C84.2284 310.678 84.6184 311.158 84.9784 311.65C85.3384 312.13 85.6444 312.58 85.8964 313H83.9164C83.6524 312.592 83.3404 312.178 82.9804 311.758C82.6324 311.326 82.2664 310.912 81.8824 310.516C81.4984 310.12 81.1084 309.754 80.7124 309.418C80.3164 309.082 79.9444 308.8 79.5964 308.572V313H77.9224V303.64H79.5964V307.654C79.8844 307.378 80.2144 307.06 80.5864 306.7C80.9584 306.328 81.3304 305.956 81.7024 305.584C82.0864 305.2 82.4404 304.84 82.7644 304.504C83.0884 304.156 83.3524 303.868 83.5564 303.64H85.5004C85.2364 303.928 84.9244 304.258 84.5644 304.63C84.2164 304.99 83.8504 305.362 83.4664 305.746C83.0944 306.13 82.7224 306.514 82.3504 306.898C81.9784 307.27 81.6424 307.606 81.3424 307.906ZM95.325 308.32C95.325 309.064 95.217 309.736 95.001 310.336C94.785 310.936 94.479 311.452 94.083 311.884C93.699 312.316 93.237 312.652 92.697 312.892C92.157 313.12 91.569 313.234 90.933 313.234C90.297 313.234 89.709 313.12 89.169 312.892C88.629 312.652 88.161 312.316 87.765 311.884C87.381 311.452 87.081 310.936 86.865 310.336C86.649 309.736 86.541 309.064 86.541 308.32C86.541 307.588 86.649 306.922 86.865 306.322C87.081 305.71 87.381 305.188 87.765 304.756C88.161 304.324 88.629 303.994 89.169 303.766C89.709 303.526 90.297 303.406 90.933 303.406C91.569 303.406 92.157 303.526 92.697 303.766C93.237 303.994 93.699 304.324 94.083 304.756C94.479 305.188 94.785 305.71 95.001 306.322C95.217 306.922 95.325 307.588 95.325 308.32ZM93.579 308.32C93.579 307.264 93.339 306.43 92.859 305.818C92.391 305.194 91.749 304.882 90.933 304.882C90.117 304.882 89.469 305.194 88.989 305.818C88.521 306.43 88.287 307.264 88.287 308.32C88.287 309.376 88.521 310.216 88.989 310.84C89.469 311.452 90.117 311.758 90.933 311.758C91.749 311.758 92.391 311.452 92.859 310.84C93.339 310.216 93.579 309.376 93.579 308.32ZM99.4622 306.106C99.3422 307.294 99.2522 308.482 99.1922 309.67C99.1322 310.846 99.0842 311.956 99.0482 313H97.4462C97.4702 312.268 97.5062 311.506 97.5542 310.714C97.6022 309.91 97.6562 309.106 97.7162 308.302C97.7762 307.486 97.8422 306.688 97.9142 305.908C97.9862 305.116 98.0642 304.36 98.1482 303.64H99.6782C100.062 304.264 100.512 305.122 101.028 306.214C101.544 307.294 102.138 308.542 102.81 309.958C103.482 308.542 104.076 307.294 104.592 306.214C105.108 305.122 105.558 304.264 105.942 303.64H107.49C107.574 304.36 107.652 305.116 107.724 305.908C107.796 306.688 107.862 307.486 107.922 308.302C107.982 309.106 108.036 309.91 108.084 310.714C108.132 311.506 108.168 312.268 108.192 313H106.536C106.5 311.956 106.452 310.846 106.392 309.67C106.332 308.482 106.242 307.294 106.122 306.106C105.93 306.478 105.708 306.928 105.456 307.456C105.204 307.972 104.952 308.5 104.7 309.04C104.46 309.58 104.232 310.096 104.016 310.588C103.8 311.08 103.632 311.47 103.512 311.758H102.108C101.976 311.458 101.796 311.062 101.568 310.57C101.352 310.078 101.118 309.562 100.866 309.022C100.626 308.47 100.38 307.936 100.128 307.42C99.8762 306.892 99.6542 306.454 99.4622 306.106ZM118.712 303.64V313H117.092V305.872C116.732 306.328 116.336 306.862 115.904 307.474C115.472 308.086 115.04 308.722 114.608 309.382C114.176 310.03 113.762 310.672 113.366 311.308C112.97 311.944 112.628 312.508 112.34 313H110.846V303.64H112.466V310.372C112.778 309.856 113.132 309.292 113.528 308.68C113.924 308.056 114.332 307.444 114.752 306.844C115.184 306.232 115.61 305.65 116.03 305.098C116.462 304.534 116.864 304.048 117.236 303.64H118.712ZM128.192 303.64V305.044H125.15V313H123.476V305.044H120.434V303.64H128.192ZM133.465 311.83C134.173 311.83 134.731 311.692 135.139 311.416C135.547 311.14 135.751 310.696 135.751 310.084C135.751 309.784 135.691 309.526 135.571 309.31C135.451 309.094 135.283 308.92 135.067 308.788C134.863 308.644 134.623 308.542 134.347 308.482C134.071 308.41 133.777 308.374 133.465 308.374C133.141 308.374 132.805 308.386 132.457 308.41C132.121 308.422 131.833 308.458 131.593 308.518V311.74C131.665 311.752 131.773 311.764 131.917 311.776C132.061 311.788 132.217 311.8 132.385 311.812C132.565 311.812 132.745 311.818 132.925 311.83C133.117 311.83 133.297 311.83 133.465 311.83ZM129.919 312.802V303.64H131.593V307.222C131.689 307.198 131.815 307.174 131.971 307.15C132.139 307.126 132.313 307.102 132.493 307.078C132.685 307.054 132.883 307.036 133.087 307.024C133.291 307.012 133.483 307.006 133.663 307.006C134.179 307.006 134.665 307.066 135.121 307.186C135.577 307.294 135.973 307.474 136.309 307.726C136.657 307.966 136.933 308.284 137.137 308.68C137.341 309.064 137.443 309.526 137.443 310.066C137.443 310.63 137.347 311.11 137.155 311.506C136.963 311.902 136.687 312.226 136.327 312.478C135.967 312.73 135.535 312.91 135.031 313.018C134.539 313.138 133.987 313.198 133.375 313.198C132.775 313.198 132.187 313.162 131.611 313.09C131.035 313.03 130.471 312.934 129.919 312.802ZM143.496 313.216C142.74 313.216 142.074 313.096 141.498 312.856C140.934 312.616 140.454 312.28 140.058 311.848C139.674 311.416 139.386 310.906 139.194 310.318C139.002 309.718 138.906 309.058 138.906 308.338C138.906 307.618 139.008 306.958 139.212 306.358C139.428 305.758 139.728 305.242 140.112 304.81C140.496 304.366 140.964 304.024 141.516 303.784C142.08 303.532 142.704 303.406 143.388 303.406C143.808 303.406 144.228 303.442 144.648 303.514C145.068 303.586 145.47 303.7 145.854 303.856L145.476 305.278C145.224 305.158 144.93 305.062 144.594 304.99C144.27 304.918 143.922 304.882 143.55 304.882C142.614 304.882 141.894 305.176 141.39 305.764C140.898 306.352 140.652 307.21 140.652 308.338C140.652 308.842 140.706 309.304 140.814 309.724C140.934 310.144 141.114 310.504 141.354 310.804C141.606 311.104 141.924 311.338 142.308 311.506C142.692 311.662 143.16 311.74 143.712 311.74C144.156 311.74 144.558 311.698 144.918 311.614C145.278 311.53 145.56 311.44 145.764 311.344L145.998 312.748C145.902 312.808 145.764 312.868 145.584 312.928C145.404 312.976 145.2 313.018 144.972 313.054C144.744 313.102 144.498 313.138 144.234 313.162C143.982 313.198 143.736 313.216 143.496 313.216ZM151.665 309.364C151.485 309.364 151.311 309.364 151.143 309.364C150.975 309.352 150.813 309.34 150.657 309.328C150.273 309.904 149.901 310.522 149.541 311.182C149.193 311.83 148.881 312.436 148.605 313H146.913C147.057 312.652 147.225 312.298 147.417 311.938C147.609 311.566 147.801 311.206 147.993 310.858C148.197 310.51 148.401 310.18 148.605 309.868C148.809 309.556 149.001 309.274 149.181 309.022C148.845 308.902 148.569 308.758 148.353 308.59C148.137 308.41 147.963 308.212 147.831 307.996C147.699 307.78 147.603 307.552 147.543 307.312C147.495 307.06 147.471 306.808 147.471 306.556C147.471 306.028 147.567 305.566 147.759 305.17C147.963 304.774 148.239 304.45 148.587 304.198C148.935 303.934 149.343 303.736 149.811 303.604C150.291 303.472 150.813 303.406 151.377 303.406C152.169 303.406 152.841 303.442 153.393 303.514C153.945 303.586 154.407 303.67 154.779 303.766V313H153.123V309.364H151.665ZM153.123 304.882C152.991 304.858 152.769 304.834 152.457 304.81C152.157 304.786 151.809 304.774 151.413 304.774C150.729 304.774 150.177 304.918 149.757 305.206C149.337 305.482 149.127 305.926 149.127 306.538C149.127 307.138 149.343 307.552 149.775 307.78C150.207 308.008 150.765 308.122 151.449 308.122H153.123V304.882ZM158.971 307.618C158.971 306.082 158.749 304.66 158.305 303.352C157.861 302.044 157.207 300.832 156.343 299.716L157.531 298.906C158.467 300.046 159.217 301.36 159.781 302.848C160.357 304.324 160.645 305.914 160.645 307.618C160.645 309.322 160.357 310.918 159.781 312.406C159.217 313.882 158.467 315.19 157.531 316.33L156.343 315.52C157.207 314.404 157.861 313.192 158.305 311.884C158.749 310.576 158.971 309.154 158.971 307.618Z" fill="black"/>
<path d="M246 183C246 171.402 255.402 162 267 162H399C410.598 162 420 171.402 420 183V230C420 232.761 417.761 235 415 235H267C255.402 235 246 225.598 246 214V183Z" fill="#F2F2F2"/>
<path d="M270.912 205.27C270.036 205.27 269.238 205.126 268.518 204.838C267.798 204.55 267.18 204.13 266.664 203.578C266.148 203.026 265.746 202.348 265.458 201.544C265.182 200.728 265.044 199.798 265.044 198.754C265.044 197.71 265.2 196.786 265.512 195.982C265.836 195.166 266.268 194.482 266.808 193.93C267.348 193.378 267.978 192.958 268.698 192.67C269.418 192.382 270.186 192.238 271.002 192.238C271.518 192.238 271.98 192.274 272.388 192.346C272.808 192.418 273.168 192.502 273.468 192.598C273.78 192.694 274.032 192.79 274.224 192.886C274.416 192.982 274.548 193.054 274.62 193.102L274.116 194.542C274.008 194.47 273.852 194.392 273.648 194.308C273.444 194.224 273.21 194.14 272.946 194.056C272.694 193.972 272.412 193.906 272.1 193.858C271.8 193.798 271.494 193.768 271.182 193.768C270.522 193.768 269.928 193.882 269.4 194.11C268.872 194.338 268.422 194.668 268.05 195.1C267.678 195.532 267.39 196.06 267.186 196.684C266.994 197.296 266.898 197.986 266.898 198.754C266.898 199.498 266.982 200.176 267.15 200.788C267.33 201.4 267.594 201.928 267.942 202.372C268.29 202.804 268.722 203.14 269.238 203.38C269.766 203.62 270.378 203.74 271.074 203.74C271.878 203.74 272.544 203.656 273.072 203.488C273.6 203.32 273.996 203.17 274.26 203.038L274.71 204.478C274.626 204.538 274.476 204.616 274.26 204.712C274.044 204.796 273.774 204.88 273.45 204.964C273.126 205.048 272.748 205.12 272.316 205.18C271.884 205.24 271.416 205.27 270.912 205.27ZM279.77 203.794C280.166 203.794 280.514 203.788 280.814 203.776C281.126 203.752 281.384 203.716 281.588 203.668V200.878C281.468 200.818 281.27 200.77 280.994 200.734C280.73 200.686 280.406 200.662 280.022 200.662C279.77 200.662 279.5 200.68 279.212 200.716C278.936 200.752 278.678 200.83 278.438 200.95C278.21 201.058 278.018 201.214 277.862 201.418C277.706 201.61 277.628 201.868 277.628 202.192C277.628 202.792 277.82 203.212 278.204 203.452C278.588 203.68 279.11 203.794 279.77 203.794ZM279.626 195.406C280.298 195.406 280.862 195.496 281.318 195.676C281.786 195.844 282.158 196.09 282.434 196.414C282.722 196.726 282.926 197.104 283.046 197.548C283.166 197.98 283.226 198.46 283.226 198.988V204.838C283.082 204.862 282.878 204.898 282.614 204.946C282.362 204.982 282.074 205.018 281.75 205.054C281.426 205.09 281.072 205.12 280.688 205.144C280.316 205.18 279.944 205.198 279.572 205.198C279.044 205.198 278.558 205.144 278.114 205.036C277.67 204.928 277.286 204.76 276.962 204.532C276.638 204.292 276.386 203.98 276.206 203.596C276.026 203.212 275.936 202.75 275.936 202.21C275.936 201.694 276.038 201.25 276.242 200.878C276.458 200.506 276.746 200.206 277.106 199.978C277.466 199.75 277.886 199.582 278.366 199.474C278.846 199.366 279.35 199.312 279.878 199.312C280.046 199.312 280.22 199.324 280.4 199.348C280.58 199.36 280.748 199.384 280.904 199.42C281.072 199.444 281.216 199.468 281.336 199.492C281.456 199.516 281.54 199.534 281.588 199.546V199.078C281.588 198.802 281.558 198.532 281.498 198.268C281.438 197.992 281.33 197.752 281.174 197.548C281.018 197.332 280.802 197.164 280.526 197.044C280.262 196.912 279.914 196.846 279.482 196.846C278.93 196.846 278.444 196.888 278.024 196.972C277.616 197.044 277.31 197.122 277.106 197.206L276.908 195.82C277.124 195.724 277.484 195.634 277.988 195.55C278.492 195.454 279.038 195.406 279.626 195.406ZM293.674 205H292V200.86H287.68V205H286.006V195.64H287.68V199.456H292V195.64H293.674V205ZM300.099 203.83C300.807 203.83 301.365 203.692 301.773 203.416C302.181 203.14 302.385 202.696 302.385 202.084C302.385 201.784 302.325 201.526 302.205 201.31C302.085 201.094 301.917 200.92 301.701 200.788C301.497 200.644 301.257 200.542 300.981 200.482C300.705 200.41 300.411 200.374 300.099 200.374C299.775 200.374 299.439 200.386 299.091 200.41C298.755 200.422 298.467 200.458 298.227 200.518V203.74C298.299 203.752 298.407 203.764 298.551 203.776C298.695 203.788 298.851 203.8 299.019 203.812C299.199 203.812 299.379 203.818 299.559 203.83C299.751 203.83 299.931 203.83 300.099 203.83ZM296.553 204.802V195.64H298.227V199.222C298.323 199.198 298.449 199.174 298.605 199.15C298.773 199.126 298.947 199.102 299.127 199.078C299.319 199.054 299.517 199.036 299.721 199.024C299.925 199.012 300.117 199.006 300.297 199.006C300.813 199.006 301.299 199.066 301.755 199.186C302.211 199.294 302.607 199.474 302.943 199.726C303.291 199.966 303.567 200.284 303.771 200.68C303.975 201.064 304.077 201.526 304.077 202.066C304.077 202.63 303.981 203.11 303.789 203.506C303.597 203.902 303.321 204.226 302.961 204.478C302.601 204.73 302.169 204.91 301.665 205.018C301.173 205.138 300.621 205.198 300.009 205.198C299.409 205.198 298.821 205.162 298.245 205.09C297.669 205.03 297.105 204.934 296.553 204.802ZM309.483 199.906C309.855 200.17 310.257 200.506 310.689 200.914C311.121 201.31 311.541 201.742 311.949 202.21C312.369 202.678 312.759 203.158 313.119 203.65C313.479 204.13 313.785 204.58 314.037 205H312.057C311.793 204.592 311.481 204.178 311.121 203.758C310.773 203.326 310.407 202.912 310.023 202.516C309.639 202.12 309.249 201.754 308.853 201.418C308.457 201.082 308.085 200.8 307.737 200.572V205H306.063V195.64H307.737V199.654C308.025 199.378 308.355 199.06 308.727 198.7C309.099 198.328 309.471 197.956 309.843 197.584C310.227 197.2 310.581 196.84 310.905 196.504C311.229 196.156 311.493 195.868 311.697 195.64H313.641C313.377 195.928 313.065 196.258 312.705 196.63C312.357 196.99 311.991 197.362 311.607 197.746C311.235 198.13 310.863 198.514 310.491 198.898C310.119 199.27 309.783 199.606 309.483 199.906ZM318.899 203.794C319.295 203.794 319.643 203.788 319.943 203.776C320.255 203.752 320.513 203.716 320.717 203.668V200.878C320.597 200.818 320.399 200.77 320.123 200.734C319.859 200.686 319.535 200.662 319.151 200.662C318.899 200.662 318.629 200.68 318.341 200.716C318.065 200.752 317.807 200.83 317.567 200.95C317.339 201.058 317.147 201.214 316.991 201.418C316.835 201.61 316.757 201.868 316.757 202.192C316.757 202.792 316.949 203.212 317.333 203.452C317.717 203.68 318.239 203.794 318.899 203.794ZM318.755 195.406C319.427 195.406 319.991 195.496 320.447 195.676C320.915 195.844 321.287 196.09 321.563 196.414C321.851 196.726 322.055 197.104 322.175 197.548C322.295 197.98 322.355 198.46 322.355 198.988V204.838C322.211 204.862 322.007 204.898 321.743 204.946C321.491 204.982 321.203 205.018 320.879 205.054C320.555 205.09 320.201 205.12 319.817 205.144C319.445 205.18 319.073 205.198 318.701 205.198C318.173 205.198 317.687 205.144 317.243 205.036C316.799 204.928 316.415 204.76 316.091 204.532C315.767 204.292 315.515 203.98 315.335 203.596C315.155 203.212 315.065 202.75 315.065 202.21C315.065 201.694 315.167 201.25 315.371 200.878C315.587 200.506 315.875 200.206 316.235 199.978C316.595 199.75 317.015 199.582 317.495 199.474C317.975 199.366 318.479 199.312 319.007 199.312C319.175 199.312 319.349 199.324 319.529 199.348C319.709 199.36 319.877 199.384 320.033 199.42C320.201 199.444 320.345 199.468 320.465 199.492C320.585 199.516 320.669 199.534 320.717 199.546V199.078C320.717 198.802 320.687 198.532 320.627 198.268C320.567 197.992 320.459 197.752 320.303 197.548C320.147 197.332 319.931 197.164 319.655 197.044C319.391 196.912 319.043 196.846 318.611 196.846C318.059 196.846 317.573 196.888 317.153 196.972C316.745 197.044 316.439 197.122 316.235 197.206L316.037 195.82C316.253 195.724 316.613 195.634 317.117 195.55C317.621 195.454 318.167 195.406 318.755 195.406ZM327.115 204.028C327.115 204.352 327.007 204.634 326.791 204.874C326.575 205.114 326.281 205.234 325.909 205.234C325.537 205.234 325.243 205.114 325.027 204.874C324.811 204.634 324.703 204.352 324.703 204.028C324.703 203.704 324.811 203.422 325.027 203.182C325.243 202.942 325.537 202.822 325.909 202.822C326.281 202.822 326.575 202.942 326.791 203.182C327.007 203.422 327.115 203.704 327.115 204.028ZM342.173 205C341.969 204.46 341.777 203.932 341.597 203.416C341.417 202.888 341.231 202.354 341.039 201.814H335.387L334.253 205H332.435C332.915 203.68 333.365 202.462 333.785 201.346C334.205 200.218 334.613 199.15 335.009 198.142C335.417 197.134 335.819 196.174 336.215 195.262C336.611 194.338 337.025 193.426 337.457 192.526H339.059C339.491 193.426 339.905 194.338 340.301 195.262C340.697 196.174 341.093 197.134 341.489 198.142C341.897 199.15 342.311 200.218 342.731 201.346C343.151 202.462 343.601 203.68 344.081 205H342.173ZM340.535 200.374C340.151 199.33 339.767 198.322 339.383 197.35C339.011 196.366 338.621 195.424 338.213 194.524C337.793 195.424 337.391 196.366 337.007 197.35C336.635 198.322 336.263 199.33 335.891 200.374H340.535ZM356.439 195.64V197.044H353.397V205H351.723V197.044H348.681V195.64H356.439ZM357.643 200.338C357.643 199.51 357.763 198.79 358.003 198.178C358.243 197.554 358.561 197.038 358.957 196.63C359.353 196.222 359.809 195.916 360.325 195.712C360.841 195.508 361.369 195.406 361.909 195.406C363.169 195.406 364.135 195.802 364.807 196.594C365.479 197.374 365.815 198.568 365.815 200.176C365.815 200.248 365.815 200.344 365.815 200.464C365.815 200.572 365.809 200.674 365.797 200.77H359.389C359.461 201.742 359.743 202.48 360.235 202.984C360.727 203.488 361.495 203.74 362.539 203.74C363.127 203.74 363.619 203.692 364.015 203.596C364.423 203.488 364.729 203.386 364.933 203.29L365.167 204.694C364.963 204.802 364.603 204.916 364.087 205.036C363.583 205.156 363.007 205.216 362.359 205.216C361.543 205.216 360.835 205.096 360.235 204.856C359.647 204.604 359.161 204.262 358.777 203.83C358.393 203.398 358.105 202.888 357.913 202.3C357.733 201.7 357.643 201.046 357.643 200.338ZM364.069 199.42C364.081 198.664 363.889 198.046 363.493 197.566C363.109 197.074 362.575 196.828 361.891 196.828C361.507 196.828 361.165 196.906 360.865 197.062C360.577 197.206 360.331 197.398 360.127 197.638C359.923 197.878 359.761 198.154 359.641 198.466C359.533 198.778 359.461 199.096 359.425 199.42H364.069ZM369.731 196.72C370.103 196.42 370.535 196.192 371.027 196.036C371.531 195.868 372.011 195.784 372.467 195.784C373.811 195.784 374.825 196.198 375.509 197.026C376.205 197.842 376.553 198.982 376.553 200.446C376.553 201.07 376.469 201.67 376.301 202.246C376.133 202.822 375.869 203.332 375.509 203.776C375.161 204.22 374.717 204.574 374.177 204.838C373.637 205.102 372.995 205.234 372.251 205.234C371.399 205.234 370.691 205.078 370.127 204.766C369.563 204.454 369.113 204.028 368.777 203.488C368.453 202.948 368.225 202.318 368.093 201.598C367.961 200.878 367.895 200.116 367.895 199.312C367.895 198.268 367.967 197.296 368.111 196.396C368.267 195.496 368.543 194.704 368.939 194.02C369.335 193.336 369.881 192.772 370.577 192.328C371.285 191.872 372.191 191.566 373.295 191.41C373.619 191.362 373.901 191.326 374.141 191.302C374.393 191.266 374.609 191.236 374.789 191.212C374.981 191.188 375.155 191.164 375.311 191.14C375.467 191.104 375.629 191.068 375.797 191.032L375.977 192.544C375.893 192.568 375.803 192.586 375.707 192.598C375.623 192.61 375.497 192.628 375.329 192.652C375.173 192.676 374.957 192.706 374.681 192.742C374.417 192.778 374.069 192.82 373.637 192.868C372.449 193 371.537 193.36 370.901 193.948C370.265 194.536 369.875 195.46 369.731 196.72ZM369.623 199.582C369.623 200.146 369.659 200.68 369.731 201.184C369.815 201.688 369.953 202.132 370.145 202.516C370.349 202.9 370.619 203.206 370.955 203.434C371.291 203.65 371.723 203.758 372.251 203.758C372.707 203.758 373.097 203.674 373.421 203.506C373.745 203.326 374.009 203.086 374.213 202.786C374.417 202.486 374.567 202.138 374.663 201.742C374.759 201.334 374.807 200.902 374.807 200.446C374.807 200.038 374.765 199.642 374.681 199.258C374.609 198.874 374.471 198.532 374.267 198.232C374.063 197.932 373.787 197.692 373.439 197.512C373.103 197.332 372.677 197.242 372.161 197.242C371.657 197.242 371.171 197.35 370.703 197.566C370.247 197.782 369.893 198.046 369.641 198.358C369.629 198.49 369.623 198.676 369.623 198.916C369.623 199.156 369.623 199.378 369.623 199.582ZM382.794 201.364C382.614 201.364 382.44 201.364 382.272 201.364C382.104 201.352 381.942 201.34 381.786 201.328C381.402 201.904 381.03 202.522 380.67 203.182C380.322 203.83 380.01 204.436 379.734 205H378.042C378.186 204.652 378.354 204.298 378.546 203.938C378.738 203.566 378.93 203.206 379.122 202.858C379.326 202.51 379.53 202.18 379.734 201.868C379.938 201.556 380.13 201.274 380.31 201.022C379.974 200.902 379.698 200.758 379.482 200.59C379.266 200.41 379.092 200.212 378.96 199.996C378.828 199.78 378.732 199.552 378.672 199.312C378.624 199.06 378.6 198.808 378.6 198.556C378.6 198.028 378.696 197.566 378.888 197.17C379.092 196.774 379.368 196.45 379.716 196.198C380.064 195.934 380.472 195.736 380.94 195.604C381.42 195.472 381.942 195.406 382.506 195.406C383.298 195.406 383.97 195.442 384.522 195.514C385.074 195.586 385.536 195.67 385.908 195.766V205H384.252V201.364H382.794ZM384.252 196.882C384.12 196.858 383.898 196.834 383.586 196.81C383.286 196.786 382.938 196.774 382.542 196.774C381.858 196.774 381.306 196.918 380.886 197.206C380.466 197.482 380.256 197.926 380.256 198.538C380.256 199.138 380.472 199.552 380.904 199.78C381.336 200.008 381.894 200.122 382.578 200.122H384.252V196.882ZM390.478 193.642C389.686 193.642 388.912 193.846 388.156 194.254L387.688 192.958C388.096 192.742 388.552 192.568 389.056 192.436C389.572 192.304 390.118 192.238 390.694 192.238C391.378 192.238 391.936 192.334 392.368 192.526C392.812 192.706 393.166 192.94 393.43 193.228C393.694 193.516 393.874 193.84 393.97 194.2C394.078 194.548 394.132 194.884 394.132 195.208C394.132 195.616 394.054 195.982 393.898 196.306C393.742 196.618 393.55 196.912 393.322 197.188C393.094 197.464 392.842 197.728 392.566 197.98C392.29 198.232 392.038 198.496 391.81 198.772C391.582 199.036 391.39 199.33 391.234 199.654C391.078 199.966 391 200.32 391 200.716C391 200.776 391 200.842 391 200.914C391 200.986 391.006 201.052 391.018 201.112H389.614C389.566 200.872 389.542 200.62 389.542 200.356C389.542 199.972 389.608 199.624 389.74 199.312C389.884 199 390.064 198.712 390.28 198.448C390.496 198.172 390.724 197.92 390.964 197.692C391.204 197.452 391.432 197.212 391.648 196.972C391.864 196.732 392.038 196.48 392.17 196.216C392.314 195.952 392.386 195.664 392.386 195.352C392.386 194.848 392.224 194.44 391.9 194.128C391.576 193.804 391.102 193.642 390.478 193.642ZM391.612 204.028C391.612 204.352 391.504 204.634 391.288 204.874C391.072 205.114 390.778 205.234 390.406 205.234C390.034 205.234 389.74 205.114 389.524 204.874C389.308 204.634 389.2 204.352 389.2 204.028C389.2 203.704 389.308 203.422 389.524 203.182C389.74 202.942 390.034 202.822 390.406 202.822C390.778 202.822 391.072 202.942 391.288 203.182C391.504 203.422 391.612 203.704 391.612 204.028ZM397.377 199.618C397.377 198.082 397.155 196.66 396.711 195.352C396.267 194.044 395.613 192.832 394.749 191.716L395.937 190.906C396.873 192.046 397.623 193.36 398.187 194.848C398.763 196.324 399.051 197.914 399.051 199.618C399.051 201.322 398.763 202.918 398.187 204.406C397.623 205.882 396.873 207.19 395.937 208.33L394.749 207.52C395.613 206.404 396.267 205.192 396.711 203.884C397.155 202.576 397.377 201.154 397.377 199.618Z" fill="black"/>
<path d="M127 377C127 365.402 136.402 356 148 356H399C410.598 356 420 365.402 420 377V424C420 426.761 417.761 429 415 429H148C136.402 429 127 419.598 127 408V377Z" fill="#F2F2F2"/>
<path d="M152.914 399.108C152.662 399.108 152.386 399.102 152.086 399.09C151.798 399.078 151.504 399.06 151.204 399.036C150.916 399.012 150.628 398.982 150.34 398.946C150.052 398.91 149.788 398.862 149.548 398.802V386.706C149.788 386.646 150.052 386.598 150.34 386.562C150.628 386.526 150.916 386.496 151.204 386.472C151.504 386.448 151.798 386.43 152.086 386.418C152.374 386.406 152.644 386.4 152.896 386.4C153.616 386.4 154.288 386.454 154.912 386.562C155.548 386.67 156.094 386.856 156.55 387.12C157.018 387.372 157.384 387.708 157.648 388.128C157.912 388.548 158.044 389.064 158.044 389.676C158.044 390.36 157.882 390.924 157.558 391.368C157.234 391.8 156.802 392.124 156.262 392.34C156.994 392.556 157.576 392.898 158.008 393.366C158.44 393.834 158.656 394.494 158.656 395.346C158.656 396.594 158.194 397.536 157.27 398.172C156.358 398.796 154.906 399.108 152.914 399.108ZM151.276 393.186V397.578C151.408 397.59 151.564 397.602 151.744 397.614C151.9 397.626 152.08 397.638 152.284 397.65C152.5 397.65 152.746 397.65 153.022 397.65C153.538 397.65 154.024 397.62 154.48 397.56C154.948 397.488 155.356 397.368 155.704 397.2C156.052 397.032 156.328 396.798 156.532 396.498C156.748 396.198 156.856 395.82 156.856 395.364C156.856 394.956 156.778 394.614 156.622 394.338C156.466 394.05 156.238 393.822 155.938 393.654C155.65 393.486 155.302 393.366 154.894 393.294C154.486 393.222 154.03 393.186 153.526 393.186H151.276ZM151.276 391.782H153.112C153.544 391.782 153.952 391.752 154.336 391.692C154.72 391.632 155.05 391.524 155.326 391.368C155.614 391.212 155.836 391.008 155.992 390.756C156.16 390.504 156.244 390.186 156.244 389.802C156.244 389.442 156.16 389.142 155.992 388.902C155.824 388.65 155.59 388.452 155.29 388.308C155.002 388.152 154.66 388.038 154.264 387.966C153.868 387.894 153.448 387.858 153.004 387.858C152.56 387.858 152.212 387.864 151.96 387.876C151.708 387.888 151.48 387.906 151.276 387.93V391.782ZM163.189 389.406C163.729 389.406 164.233 389.46 164.701 389.568C165.169 389.676 165.571 389.838 165.907 390.054C166.243 390.27 166.507 390.54 166.699 390.864C166.891 391.188 166.987 391.566 166.987 391.998C166.987 392.274 166.939 392.526 166.843 392.754C166.747 392.982 166.627 393.186 166.483 393.366C166.339 393.546 166.177 393.702 165.997 393.834C165.829 393.954 165.667 394.038 165.511 394.086C166.063 394.254 166.495 394.554 166.807 394.986C167.131 395.406 167.293 395.94 167.293 396.588C167.293 397.476 166.933 398.136 166.213 398.568C165.493 399 164.515 399.216 163.279 399.216C162.523 399.216 161.869 399.156 161.317 399.036C160.777 398.916 160.393 398.802 160.165 398.694L160.453 397.272C160.645 397.344 160.987 397.446 161.479 397.578C161.983 397.698 162.583 397.758 163.279 397.758C164.035 397.758 164.611 397.644 165.007 397.416C165.403 397.176 165.601 396.822 165.601 396.354C165.601 396.018 165.523 395.748 165.367 395.544C165.223 395.328 165.037 395.166 164.809 395.058C164.581 394.95 164.335 394.878 164.071 394.842C163.807 394.806 163.561 394.788 163.333 394.788H161.767V393.456H163.279C163.495 393.456 163.717 393.444 163.945 393.42C164.185 393.384 164.401 393.318 164.593 393.222C164.797 393.126 164.965 392.994 165.097 392.826C165.229 392.646 165.295 392.412 165.295 392.124C165.295 391.896 165.235 391.704 165.115 391.548C165.007 391.38 164.857 391.242 164.665 391.134C164.473 391.026 164.245 390.948 163.981 390.9C163.729 390.84 163.465 390.81 163.189 390.81C162.973 390.81 162.739 390.828 162.487 390.864C162.235 390.9 161.989 390.948 161.749 391.008C161.509 391.056 161.293 391.11 161.101 391.17C160.909 391.23 160.771 391.284 160.687 391.332L160.381 389.892C160.477 389.856 160.627 389.808 160.831 389.748C161.035 389.688 161.263 389.634 161.515 389.586C161.779 389.538 162.055 389.496 162.343 389.46C162.631 389.424 162.913 389.406 163.189 389.406ZM172.788 397.794C173.184 397.794 173.532 397.788 173.832 397.776C174.144 397.752 174.402 397.716 174.606 397.668V394.878C174.486 394.818 174.288 394.77 174.012 394.734C173.748 394.686 173.424 394.662 173.04 394.662C172.788 394.662 172.518 394.68 172.23 394.716C171.954 394.752 171.696 394.83 171.456 394.95C171.228 395.058 171.036 395.214 170.88 395.418C170.724 395.61 170.646 395.868 170.646 396.192C170.646 396.792 170.838 397.212 171.222 397.452C171.606 397.68 172.128 397.794 172.788 397.794ZM172.644 389.406C173.316 389.406 173.88 389.496 174.336 389.676C174.804 389.844 175.176 390.09 175.452 390.414C175.74 390.726 175.944 391.104 176.064 391.548C176.184 391.98 176.244 392.46 176.244 392.988V398.838C176.1 398.862 175.896 398.898 175.632 398.946C175.38 398.982 175.092 399.018 174.768 399.054C174.444 399.09 174.09 399.12 173.706 399.144C173.334 399.18 172.962 399.198 172.59 399.198C172.062 399.198 171.576 399.144 171.132 399.036C170.688 398.928 170.304 398.76 169.98 398.532C169.656 398.292 169.404 397.98 169.224 397.596C169.044 397.212 168.954 396.75 168.954 396.21C168.954 395.694 169.056 395.25 169.26 394.878C169.476 394.506 169.764 394.206 170.124 393.978C170.484 393.75 170.904 393.582 171.384 393.474C171.864 393.366 172.368 393.312 172.896 393.312C173.064 393.312 173.238 393.324 173.418 393.348C173.598 393.36 173.766 393.384 173.922 393.42C174.09 393.444 174.234 393.468 174.354 393.492C174.474 393.516 174.558 393.534 174.606 393.546V393.078C174.606 392.802 174.576 392.532 174.516 392.268C174.456 391.992 174.348 391.752 174.192 391.548C174.036 391.332 173.82 391.164 173.544 391.044C173.28 390.912 172.932 390.846 172.5 390.846C171.948 390.846 171.462 390.888 171.042 390.972C170.634 391.044 170.328 391.122 170.124 391.206L169.926 389.82C170.142 389.724 170.502 389.634 171.006 389.55C171.51 389.454 172.056 389.406 172.644 389.406ZM186.89 389.64V399H185.27V391.872C184.91 392.328 184.514 392.862 184.082 393.474C183.65 394.086 183.218 394.722 182.786 395.382C182.354 396.03 181.94 396.672 181.544 397.308C181.148 397.944 180.806 398.508 180.518 399H179.024V389.64H180.644V396.372C180.956 395.856 181.31 395.292 181.706 394.68C182.102 394.056 182.51 393.444 182.93 392.844C183.362 392.232 183.788 391.65 184.208 391.098C184.64 390.534 185.042 390.048 185.414 389.64H186.89ZM191.546 392.106C191.426 393.294 191.336 394.482 191.276 395.67C191.216 396.846 191.168 397.956 191.132 399H189.53C189.554 398.268 189.59 397.506 189.638 396.714C189.686 395.91 189.74 395.106 189.8 394.302C189.86 393.486 189.926 392.688 189.998 391.908C190.07 391.116 190.148 390.36 190.232 389.64H191.762C192.146 390.264 192.596 391.122 193.112 392.214C193.628 393.294 194.222 394.542 194.894 395.958C195.566 394.542 196.16 393.294 196.676 392.214C197.192 391.122 197.642 390.264 198.026 389.64H199.574C199.658 390.36 199.736 391.116 199.808 391.908C199.88 392.688 199.946 393.486 200.006 394.302C200.066 395.106 200.12 395.91 200.168 396.714C200.216 397.506 200.252 398.268 200.276 399H198.62C198.584 397.956 198.536 396.846 198.476 395.67C198.416 394.482 198.326 393.294 198.206 392.106C198.014 392.478 197.792 392.928 197.54 393.456C197.288 393.972 197.036 394.5 196.784 395.04C196.544 395.58 196.316 396.096 196.1 396.588C195.884 397.08 195.716 397.47 195.596 397.758H194.192C194.06 397.458 193.88 397.062 193.652 396.57C193.436 396.078 193.202 395.562 192.95 395.022C192.71 394.47 192.464 393.936 192.212 393.42C191.96 392.892 191.738 392.454 191.546 392.106ZM210.598 399H208.924V394.86H204.604V399H202.93V389.64H204.604V393.456H208.924V389.64H210.598V399ZM221.739 394.32C221.739 395.064 221.631 395.736 221.415 396.336C221.199 396.936 220.893 397.452 220.497 397.884C220.113 398.316 219.651 398.652 219.111 398.892C218.571 399.12 217.983 399.234 217.347 399.234C216.711 399.234 216.123 399.12 215.583 398.892C215.043 398.652 214.575 398.316 214.179 397.884C213.795 397.452 213.495 396.936 213.279 396.336C213.063 395.736 212.955 395.064 212.955 394.32C212.955 393.588 213.063 392.922 213.279 392.322C213.495 391.71 213.795 391.188 214.179 390.756C214.575 390.324 215.043 389.994 215.583 389.766C216.123 389.526 216.711 389.406 217.347 389.406C217.983 389.406 218.571 389.526 219.111 389.766C219.651 389.994 220.113 390.324 220.497 390.756C220.893 391.188 221.199 391.71 221.415 392.322C221.631 392.922 221.739 393.588 221.739 394.32ZM219.993 394.32C219.993 393.264 219.753 392.43 219.273 391.818C218.805 391.194 218.163 390.882 217.347 390.882C216.531 390.882 215.883 391.194 215.403 391.818C214.935 392.43 214.701 393.264 214.701 394.32C214.701 395.376 214.935 396.216 215.403 396.84C215.883 397.452 216.531 397.758 217.347 397.758C218.163 397.758 218.805 397.452 219.273 396.84C219.753 396.216 219.993 395.376 219.993 394.32ZM226.038 389.91C226.038 390.918 226.002 391.836 225.93 392.664C225.858 393.48 225.768 394.296 225.66 395.112H224.616C224.508 394.296 224.418 393.48 224.346 392.664C224.274 391.836 224.238 390.918 224.238 389.91V386.526H226.038V389.91ZM226.344 398.028C226.344 398.352 226.236 398.634 226.02 398.874C225.804 399.114 225.51 399.234 225.138 399.234C224.766 399.234 224.472 399.114 224.256 398.874C224.04 398.634 223.932 398.352 223.932 398.028C223.932 397.704 224.04 397.422 224.256 397.182C224.472 396.942 224.766 396.822 225.138 396.822C225.51 396.822 225.804 396.942 226.02 397.182C226.236 397.422 226.344 397.704 226.344 398.028ZM234.567 390.126C234.567 390.63 234.609 391.074 234.693 391.458C234.789 391.83 234.945 392.142 235.161 392.394C235.389 392.634 235.689 392.814 236.061 392.934C236.445 393.054 236.925 393.114 237.501 393.114C237.729 393.114 237.957 393.108 238.185 393.096C238.425 393.072 238.653 393.048 238.869 393.024C239.085 393 239.277 392.97 239.445 392.934C239.613 392.898 239.751 392.868 239.859 392.844V386.526H241.605V399H239.859V394.356C239.631 394.416 239.277 394.476 238.797 394.536C238.329 394.596 237.825 394.626 237.285 394.626C236.373 394.626 235.629 394.524 235.053 394.32C234.477 394.104 234.021 393.804 233.685 393.42C233.361 393.024 233.139 392.55 233.019 391.998C232.899 391.434 232.839 390.81 232.839 390.126V386.526H234.567V390.126ZM244.068 394.338C244.068 393.51 244.188 392.79 244.428 392.178C244.668 391.554 244.986 391.038 245.382 390.63C245.778 390.222 246.234 389.916 246.75 389.712C247.266 389.508 247.794 389.406 248.334 389.406C249.594 389.406 250.56 389.802 251.232 390.594C251.904 391.374 252.24 392.568 252.24 394.176C252.24 394.248 252.24 394.344 252.24 394.464C252.24 394.572 252.234 394.674 252.222 394.77H245.814C245.886 395.742 246.168 396.48 246.66 396.984C247.152 397.488 247.92 397.74 248.964 397.74C249.552 397.74 250.044 397.692 250.44 397.596C250.848 397.488 251.154 397.386 251.358 397.29L251.592 398.694C251.388 398.802 251.028 398.916 250.512 399.036C250.008 399.156 249.432 399.216 248.784 399.216C247.968 399.216 247.26 399.096 246.66 398.856C246.072 398.604 245.586 398.262 245.202 397.83C244.818 397.398 244.53 396.888 244.338 396.3C244.158 395.7 244.068 395.046 244.068 394.338ZM250.494 393.42C250.506 392.664 250.314 392.046 249.918 391.566C249.534 391.074 249 390.828 248.316 390.828C247.932 390.828 247.59 390.906 247.29 391.062C247.002 391.206 246.756 391.398 246.552 391.638C246.348 391.878 246.186 392.154 246.066 392.466C245.958 392.778 245.886 393.096 245.85 393.42H250.494ZM256.427 392.106C256.307 393.294 256.217 394.482 256.157 395.67C256.097 396.846 256.049 397.956 256.013 399H254.411C254.435 398.268 254.471 397.506 254.519 396.714C254.567 395.91 254.621 395.106 254.681 394.302C254.741 393.486 254.807 392.688 254.879 391.908C254.951 391.116 255.029 390.36 255.113 389.64H256.643C257.027 390.264 257.477 391.122 257.993 392.214C258.509 393.294 259.103 394.542 259.775 395.958C260.447 394.542 261.041 393.294 261.557 392.214C262.073 391.122 262.523 390.264 262.907 389.64H264.455C264.539 390.36 264.617 391.116 264.689 391.908C264.761 392.688 264.827 393.486 264.887 394.302C264.947 395.106 265.001 395.91 265.049 396.714C265.097 397.506 265.133 398.268 265.157 399H263.501C263.465 397.956 263.417 396.846 263.357 395.67C263.297 394.482 263.207 393.294 263.087 392.106C262.895 392.478 262.673 392.928 262.421 393.456C262.169 393.972 261.917 394.5 261.665 395.04C261.425 395.58 261.197 396.096 260.981 396.588C260.765 397.08 260.597 397.47 260.477 397.758H259.073C258.941 397.458 258.761 397.062 258.533 396.57C258.317 396.078 258.083 395.562 257.831 395.022C257.591 394.47 257.345 393.936 257.093 393.42C256.841 392.892 256.619 392.454 256.427 392.106ZM274.353 389.406C274.893 389.406 275.397 389.46 275.865 389.568C276.333 389.676 276.735 389.838 277.071 390.054C277.407 390.27 277.671 390.54 277.863 390.864C278.055 391.188 278.151 391.566 278.151 391.998C278.151 392.274 278.103 392.526 278.007 392.754C277.911 392.982 277.791 393.186 277.647 393.366C277.503 393.546 277.341 393.702 277.161 393.834C276.993 393.954 276.831 394.038 276.675 394.086C277.227 394.254 277.659 394.554 277.971 394.986C278.295 395.406 278.457 395.94 278.457 396.588C278.457 397.476 278.097 398.136 277.377 398.568C276.657 399 275.679 399.216 274.443 399.216C273.687 399.216 273.033 399.156 272.481 399.036C271.941 398.916 271.557 398.802 271.329 398.694L271.617 397.272C271.809 397.344 272.151 397.446 272.643 397.578C273.147 397.698 273.747 397.758 274.443 397.758C275.199 397.758 275.775 397.644 276.171 397.416C276.567 397.176 276.765 396.822 276.765 396.354C276.765 396.018 276.687 395.748 276.531 395.544C276.387 395.328 276.201 395.166 275.973 395.058C275.745 394.95 275.499 394.878 275.235 394.842C274.971 394.806 274.725 394.788 274.497 394.788H272.931V393.456H274.443C274.659 393.456 274.881 393.444 275.109 393.42C275.349 393.384 275.565 393.318 275.757 393.222C275.961 393.126 276.129 392.994 276.261 392.826C276.393 392.646 276.459 392.412 276.459 392.124C276.459 391.896 276.399 391.704 276.279 391.548C276.171 391.38 276.021 391.242 275.829 391.134C275.637 391.026 275.409 390.948 275.145 390.9C274.893 390.84 274.629 390.81 274.353 390.81C274.137 390.81 273.903 390.828 273.651 390.864C273.399 390.9 273.153 390.948 272.913 391.008C272.673 391.056 272.457 391.11 272.265 391.17C272.073 391.23 271.935 391.284 271.851 391.332L271.545 389.892C271.641 389.856 271.791 389.808 271.995 389.748C272.199 389.688 272.427 389.634 272.679 389.586C272.943 389.538 273.219 389.496 273.507 389.46C273.795 389.424 274.077 389.406 274.353 389.406ZM283.952 397.794C284.348 397.794 284.696 397.788 284.996 397.776C285.308 397.752 285.566 397.716 285.77 397.668V394.878C285.65 394.818 285.452 394.77 285.176 394.734C284.912 394.686 284.588 394.662 284.204 394.662C283.952 394.662 283.682 394.68 283.394 394.716C283.118 394.752 282.86 394.83 282.62 394.95C282.392 395.058 282.2 395.214 282.044 395.418C281.888 395.61 281.81 395.868 281.81 396.192C281.81 396.792 282.002 397.212 282.386 397.452C282.77 397.68 283.292 397.794 283.952 397.794ZM283.808 389.406C284.48 389.406 285.044 389.496 285.5 389.676C285.968 389.844 286.34 390.09 286.616 390.414C286.904 390.726 287.108 391.104 287.228 391.548C287.348 391.98 287.408 392.46 287.408 392.988V398.838C287.264 398.862 287.06 398.898 286.796 398.946C286.544 398.982 286.256 399.018 285.932 399.054C285.608 399.09 285.254 399.12 284.87 399.144C284.498 399.18 284.126 399.198 283.754 399.198C283.226 399.198 282.74 399.144 282.296 399.036C281.852 398.928 281.468 398.76 281.144 398.532C280.82 398.292 280.568 397.98 280.388 397.596C280.208 397.212 280.118 396.75 280.118 396.21C280.118 395.694 280.22 395.25 280.424 394.878C280.64 394.506 280.928 394.206 281.288 393.978C281.648 393.75 282.068 393.582 282.548 393.474C283.028 393.366 283.532 393.312 284.06 393.312C284.228 393.312 284.402 393.324 284.582 393.348C284.762 393.36 284.93 393.384 285.086 393.42C285.254 393.444 285.398 393.468 285.518 393.492C285.638 393.516 285.722 393.534 285.77 393.546V393.078C285.77 392.802 285.74 392.532 285.68 392.268C285.62 391.992 285.512 391.752 285.356 391.548C285.2 391.332 284.984 391.164 284.708 391.044C284.444 390.912 284.096 390.846 283.664 390.846C283.112 390.846 282.626 390.888 282.206 390.972C281.798 391.044 281.492 391.122 281.288 391.206L281.09 389.82C281.306 389.724 281.666 389.634 282.17 389.55C282.674 389.454 283.22 389.406 283.808 389.406ZM297.856 399H296.182V394.86H291.862V399H290.188V389.64H291.862V393.456H296.182V389.64H297.856V399ZM308.601 389.64V399H306.981V391.872C306.621 392.328 306.225 392.862 305.793 393.474C305.361 394.086 304.929 394.722 304.497 395.382C304.065 396.03 303.651 396.672 303.255 397.308C302.859 397.944 302.517 398.508 302.229 399H300.735V389.64H302.355V396.372C302.667 395.856 303.021 395.292 303.417 394.68C303.813 394.056 304.221 393.444 304.641 392.844C305.073 392.232 305.499 391.65 305.919 391.098C306.351 390.534 306.753 390.048 307.125 389.64H308.601ZM313.257 392.106C313.137 393.294 313.047 394.482 312.987 395.67C312.927 396.846 312.879 397.956 312.843 399H311.241C311.265 398.268 311.301 397.506 311.349 396.714C311.397 395.91 311.451 395.106 311.511 394.302C311.571 393.486 311.637 392.688 311.709 391.908C311.781 391.116 311.859 390.36 311.943 389.64H313.473C313.857 390.264 314.307 391.122 314.823 392.214C315.339 393.294 315.933 394.542 316.605 395.958C317.277 394.542 317.871 393.294 318.387 392.214C318.903 391.122 319.353 390.264 319.737 389.64H321.285C321.369 390.36 321.447 391.116 321.519 391.908C321.591 392.688 321.657 393.486 321.717 394.302C321.777 395.106 321.831 395.91 321.879 396.714C321.927 397.506 321.963 398.268 321.987 399H320.331C320.295 397.956 320.247 396.846 320.187 395.67C320.127 394.482 320.037 393.294 319.917 392.106C319.725 392.478 319.503 392.928 319.251 393.456C318.999 393.972 318.747 394.5 318.495 395.04C318.255 395.58 318.027 396.096 317.811 396.588C317.595 397.08 317.427 397.47 317.307 397.758H315.903C315.771 397.458 315.591 397.062 315.363 396.57C315.147 396.078 314.913 395.562 314.661 395.022C314.421 394.47 314.175 393.936 313.923 393.42C313.671 392.892 313.449 392.454 313.257 392.106ZM327.809 397.794C328.205 397.794 328.553 397.788 328.853 397.776C329.165 397.752 329.423 397.716 329.627 397.668V394.878C329.507 394.818 329.309 394.77 329.033 394.734C328.769 394.686 328.445 394.662 328.061 394.662C327.809 394.662 327.539 394.68 327.251 394.716C326.975 394.752 326.717 394.83 326.477 394.95C326.249 395.058 326.057 395.214 325.901 395.418C325.745 395.61 325.667 395.868 325.667 396.192C325.667 396.792 325.859 397.212 326.243 397.452C326.627 397.68 327.149 397.794 327.809 397.794ZM327.665 389.406C328.337 389.406 328.901 389.496 329.357 389.676C329.825 389.844 330.197 390.09 330.473 390.414C330.761 390.726 330.965 391.104 331.085 391.548C331.205 391.98 331.265 392.46 331.265 392.988V398.838C331.121 398.862 330.917 398.898 330.653 398.946C330.401 398.982 330.113 399.018 329.789 399.054C329.465 399.09 329.111 399.12 328.727 399.144C328.355 399.18 327.983 399.198 327.611 399.198C327.083 399.198 326.597 399.144 326.153 399.036C325.709 398.928 325.325 398.76 325.001 398.532C324.677 398.292 324.425 397.98 324.245 397.596C324.065 397.212 323.975 396.75 323.975 396.21C323.975 395.694 324.077 395.25 324.281 394.878C324.497 394.506 324.785 394.206 325.145 393.978C325.505 393.75 325.925 393.582 326.405 393.474C326.885 393.366 327.389 393.312 327.917 393.312C328.085 393.312 328.259 393.324 328.439 393.348C328.619 393.36 328.787 393.384 328.943 393.42C329.111 393.444 329.255 393.468 329.375 393.492C329.495 393.516 329.579 393.534 329.627 393.546V393.078C329.627 392.802 329.597 392.532 329.537 392.268C329.477 391.992 329.369 391.752 329.213 391.548C329.057 391.332 328.841 391.164 328.565 391.044C328.301 390.912 327.953 390.846 327.521 390.846C326.969 390.846 326.483 390.888 326.063 390.972C325.655 391.044 325.349 391.122 325.145 391.206L324.947 389.82C325.163 389.724 325.523 389.634 326.027 389.55C326.531 389.454 327.077 389.406 327.665 389.406ZM333.523 394.338C333.523 393.51 333.643 392.79 333.883 392.178C334.123 391.554 334.441 391.038 334.837 390.63C335.233 390.222 335.689 389.916 336.205 389.712C336.721 389.508 337.249 389.406 337.789 389.406C339.049 389.406 340.015 389.802 340.687 390.594C341.359 391.374 341.695 392.568 341.695 394.176C341.695 394.248 341.695 394.344 341.695 394.464C341.695 394.572 341.689 394.674 341.677 394.77H335.269C335.341 395.742 335.623 396.48 336.115 396.984C336.607 397.488 337.375 397.74 338.419 397.74C339.007 397.74 339.499 397.692 339.895 397.596C340.303 397.488 340.609 397.386 340.813 397.29L341.047 398.694C340.843 398.802 340.483 398.916 339.967 399.036C339.463 399.156 338.887 399.216 338.239 399.216C337.423 399.216 336.715 399.096 336.115 398.856C335.527 398.604 335.041 398.262 334.657 397.83C334.273 397.398 333.985 396.888 333.793 396.3C333.613 395.7 333.523 395.046 333.523 394.338ZM339.949 393.42C339.961 392.664 339.769 392.046 339.373 391.566C338.989 391.074 338.455 390.828 337.771 390.828C337.387 390.828 337.045 390.906 336.745 391.062C336.457 391.206 336.211 391.398 336.007 391.638C335.803 391.878 335.641 392.154 335.521 392.466C335.413 392.778 335.341 393.096 335.305 393.42H339.949ZM344.1 399V389.64H345.774V397.614H349.23V389.64H350.904V397.614H354.36V389.64H356.034V399H344.1ZM362.465 397.83C363.173 397.83 363.731 397.692 364.139 397.416C364.547 397.14 364.751 396.696 364.751 396.084C364.751 395.784 364.691 395.526 364.571 395.31C364.451 395.094 364.283 394.92 364.067 394.788C363.863 394.644 363.623 394.542 363.347 394.482C363.071 394.41 362.777 394.374 362.465 394.374C362.141 394.374 361.805 394.386 361.457 394.41C361.121 394.422 360.833 394.458 360.593 394.518V397.74C360.665 397.752 360.773 397.764 360.917 397.776C361.061 397.788 361.217 397.8 361.385 397.812C361.565 397.812 361.745 397.818 361.925 397.83C362.117 397.83 362.297 397.83 362.465 397.83ZM358.919 398.802V389.64H360.593V393.222C360.689 393.198 360.815 393.174 360.971 393.15C361.139 393.126 361.313 393.102 361.493 393.078C361.685 393.054 361.883 393.036 362.087 393.024C362.291 393.012 362.483 393.006 362.663 393.006C363.179 393.006 363.665 393.066 364.121 393.186C364.577 393.294 364.973 393.474 365.309 393.726C365.657 393.966 365.933 394.284 366.137 394.68C366.341 395.064 366.443 395.526 366.443 396.066C366.443 396.63 366.347 397.11 366.155 397.506C365.963 397.902 365.687 398.226 365.327 398.478C364.967 398.73 364.535 398.91 364.031 399.018C363.539 399.138 362.987 399.198 362.375 399.198C361.775 399.198 361.187 399.162 360.611 399.09C360.035 399.03 359.471 398.934 358.919 398.802ZM372.496 399.216C371.74 399.216 371.074 399.096 370.498 398.856C369.934 398.616 369.454 398.28 369.058 397.848C368.674 397.416 368.386 396.906 368.194 396.318C368.002 395.718 367.906 395.058 367.906 394.338C367.906 393.618 368.008 392.958 368.212 392.358C368.428 391.758 368.728 391.242 369.112 390.81C369.496 390.366 369.964 390.024 370.516 389.784C371.08 389.532 371.704 389.406 372.388 389.406C372.808 389.406 373.228 389.442 373.648 389.514C374.068 389.586 374.47 389.7 374.854 389.856L374.476 391.278C374.224 391.158 373.93 391.062 373.594 390.99C373.27 390.918 372.922 390.882 372.55 390.882C371.614 390.882 370.894 391.176 370.39 391.764C369.898 392.352 369.652 393.21 369.652 394.338C369.652 394.842 369.706 395.304 369.814 395.724C369.934 396.144 370.114 396.504 370.354 396.804C370.606 397.104 370.924 397.338 371.308 397.506C371.692 397.662 372.16 397.74 372.712 397.74C373.156 397.74 373.558 397.698 373.918 397.614C374.278 397.53 374.56 397.44 374.764 397.344L374.998 398.748C374.902 398.808 374.764 398.868 374.584 398.928C374.404 398.976 374.2 399.018 373.972 399.054C373.744 399.102 373.498 399.138 373.234 399.162C372.982 399.198 372.736 399.216 372.496 399.216ZM380.665 395.364C380.485 395.364 380.311 395.364 380.143 395.364C379.975 395.352 379.813 395.34 379.657 395.328C379.273 395.904 378.901 396.522 378.541 397.182C378.193 397.83 377.881 398.436 377.605 399H375.913C376.057 398.652 376.225 398.298 376.417 397.938C376.609 397.566 376.801 397.206 376.993 396.858C377.197 396.51 377.401 396.18 377.605 395.868C377.809 395.556 378.001 395.274 378.181 395.022C377.845 394.902 377.569 394.758 377.353 394.59C377.137 394.41 376.963 394.212 376.831 393.996C376.699 393.78 376.603 393.552 376.543 393.312C376.495 393.06 376.471 392.808 376.471 392.556C376.471 392.028 376.567 391.566 376.759 391.17C376.963 390.774 377.239 390.45 377.587 390.198C377.935 389.934 378.343 389.736 378.811 389.604C379.291 389.472 379.813 389.406 380.377 389.406C381.169 389.406 381.841 389.442 382.393 389.514C382.945 389.586 383.407 389.67 383.779 389.766V399H382.123V395.364H380.665ZM382.123 390.882C381.991 390.858 381.769 390.834 381.457 390.81C381.157 390.786 380.809 390.774 380.413 390.774C379.729 390.774 379.177 390.918 378.757 391.206C378.337 391.482 378.127 391.926 378.127 392.538C378.127 393.138 378.343 393.552 378.775 393.78C379.207 394.008 379.765 394.122 380.449 394.122H382.123V390.882ZM388.349 387.642C387.557 387.642 386.783 387.846 386.027 388.254L385.559 386.958C385.967 386.742 386.423 386.568 386.927 386.436C387.443 386.304 387.989 386.238 388.565 386.238C389.249 386.238 389.807 386.334 390.239 386.526C390.683 386.706 391.037 386.94 391.301 387.228C391.565 387.516 391.745 387.84 391.841 388.2C391.949 388.548 392.003 388.884 392.003 389.208C392.003 389.616 391.925 389.982 391.769 390.306C391.613 390.618 391.421 390.912 391.193 391.188C390.965 391.464 390.713 391.728 390.437 391.98C390.161 392.232 389.909 392.496 389.681 392.772C389.453 393.036 389.261 393.33 389.105 393.654C388.949 393.966 388.871 394.32 388.871 394.716C388.871 394.776 388.871 394.842 388.871 394.914C388.871 394.986 388.877 395.052 388.889 395.112H387.485C387.437 394.872 387.413 394.62 387.413 394.356C387.413 393.972 387.479 393.624 387.611 393.312C387.755 393 387.935 392.712 388.151 392.448C388.367 392.172 388.595 391.92 388.835 391.692C389.075 391.452 389.303 391.212 389.519 390.972C389.735 390.732 389.909 390.48 390.041 390.216C390.185 389.952 390.257 389.664 390.257 389.352C390.257 388.848 390.095 388.44 389.771 388.128C389.447 387.804 388.973 387.642 388.349 387.642ZM389.483 398.028C389.483 398.352 389.375 398.634 389.159 398.874C388.943 399.114 388.649 399.234 388.277 399.234C387.905 399.234 387.611 399.114 387.395 398.874C387.179 398.634 387.071 398.352 387.071 398.028C387.071 397.704 387.179 397.422 387.395 397.182C387.611 396.942 387.905 396.822 388.277 396.822C388.649 396.822 388.943 396.942 389.159 397.182C389.375 397.422 389.483 397.704 389.483 398.028ZM395.248 393.618C395.248 392.082 395.026 390.66 394.582 389.352C394.138 388.044 393.484 386.832 392.62 385.716L393.808 384.906C394.744 386.046 395.494 387.36 396.058 388.848C396.634 390.324 396.922 391.914 396.922 393.618C396.922 395.322 396.634 396.918 396.058 398.406C395.494 399.882 394.744 401.19 393.808 402.33L392.62 401.52C393.484 400.404 394.138 399.192 394.582 397.884C395.026 396.576 395.248 395.154 395.248 393.618Z" fill="black"/>
</svg>
