<svg xmlns="http://www.w3.org/2000/svg" viewbox="0 0 24 24">

  <symbol id="menu-1">
    <path d="M24 6h-24v-4h24v4zm0 4h-24v4h24v-4zm0 8h-24v4h24v-4z"/>
  </symbol>

  <symbol id="toggle-thin" fill-rule="evenodd" clip-rule="evenodd">
    <path d="M16 20h-8c-4.415 0-8-3.585-8-8s3.585-8 8-8h8c4.415 0 8 3.585 8 8s-3.585 8-8 8zm0-15h-8c-3.863 0-7 3.137-7 7s3.137 7 7 7h8.045c3.843-.025 6.955-3.152 6.955-7s-3.112-6.975-6.955-7h-.045zm-8 2c2.76 0 5 2.24 5 5s-2.24 5-5 5-5-2.24-5-5 2.24-5 5-5zm0 1c2.208 0 4 1.792 4 4s-1.792 4-4 4-4-1.792-4-4 1.792-4 4-4z"/>
  </symbol>

  <symbol id="control-panel-5">
    <path d="M12 9c.552 0 1 .449 1 1s-.448 1-1 1-1-.449-1-1 .448-1 1-1zm0-2c-1.657 0-3 1.343-3 3s1.343 3 3 3 3-1.343 3-3-1.343-3-3-3zm-9 4c-1.657 0-3 1.343-3 3s1.343 3 3 3 3-1.343 3-3-1.343-3-3-3zm18 0c-1.657 0-3 1.343-3 3s1.343 3 3 3 3-1.343 3-3-1.343-3-3-3zm-9-6c.343 0 .677.035 1 .101v-3.101c0-.552-.447-1-1-1s-1 .448-1 1v3.101c.323-.066.657-.101 1-.101zm9 4c.343 0 .677.035 1 .101v-7.101c0-.552-.447-1-1-1s-1 .448-1 1v7.101c.323-.066.657-.101 1-.101zm0 10c-.343 0-.677-.035-1-.101v3.101c0 .552.447 1 1 1s1-.448 1-1v-3.101c-.323.066-.657.101-1 .101zm-18-10c.343 0 .677.035 1 .101v-7.101c0-.552-.447-1-1-1s-1 .448-1 1v7.101c.323-.066.657-.101 1-.101zm9 6c-.343 0-.677-.035-1-.101v7.101c0 .552.447 1 1 1s1-.448 1-1v-7.101c-.323.066-.657.101-1 .101zm-9 4c-.343 0-.677-.035-1-.101v3.101c0 .552.447 1 1 1s1-.448 1-1v-3.101c-.323.066-.657.101-1 .101z"/>
  </symbol>

  <symbol id="smiley-thin" fill-rule="evenodd" clip-rule="evenodd">
    <path d="M12 0c6.623 0 12 5.377 12 12s-5.377 12-12 12-12-5.377-12-12 5.377-12 12-12zm0 1c6.071 0 11 4.929 11 11s-4.929 11-11 11-11-4.929-11-11 4.929-11 11-11zm-.045 17.51h-.015c-2.285 0-4.469-1.189-6.153-3.349l.789-.614c1.489 1.911 3.394 2.963 5.364 2.963h.013c1.987-.004 3.907-1.078 5.408-3.021l.791.611c-1.693 2.194-3.894 3.405-6.197 3.41zm-3.468-10.01c.552 0 1 .448 1 1s-.448 1-1 1-1-.448-1-1 .448-1 1-1zm7.013 0c.552 0 1 .448 1 1s-.448 1-1 1-1-.448-1-1 .448-1 1-1z"/>
  </symbol>

  <symbol id="heart-thin" fill-rule="evenodd" clip-rule="evenodd">
    <path d="M12 21.593c-5.63-5.539-11-10.297-11-14.402 0-3.791 3.068-5.191 5.281-5.191 1.312 0 4.151.501 5.719 4.457 1.59-3.968 4.464-4.447 5.726-4.447 2.54 0 5.274 1.621 5.274 5.181 0 4.069-5.136 8.625-11 14.402m5.726-20.583c-2.203 0-4.446 1.042-5.726 3.238-1.285-2.206-3.522-3.248-5.719-3.248-3.183 0-6.281 2.187-6.281 6.191 0 4.661 5.571 9.429 12 15.809 6.43-6.38 12-11.148 12-15.809 0-4.011-3.095-6.181-6.274-6.181"/>
  </symbol>

  <symbol id="networking-6">
    <path d="M12.74 9.524c-.022-.043.222-.065.266-.065.048.005-.127.291-.266.065zm-1.39-1.986l.07-.02-.033.087c.056.101.014.161.005.214l-.096.061c-.034.042.167.048.169.055.008.021-.243.058-.196.111.062.088.532-.126.458-.114.145-.073.02-.081-.062-.124-.028-.139-.052-.354-.139-.439l.058-.065c-.135-.194-.234.234-.234.234zm8.65 4.462c0 4.418-3.582 8-8 8s-8-3.582-8-8 3.582-8 8-8 8 3.582 8 8zm-5.612-3.473c-.003-.095-.123-.184-.246-.021-.087.112-.072.284-.12.36-.067.114.368.22.368.113.017-.179.473-.041.562-.016.16.045.416-.146.137-.246-.231-.083-.352-.173-.372-.337 0 0 .121-.114.068-.107-.141.016-.397.507-.397.254zm4.072 3.473c0-.669-.114-1.345-.231-1.702-.037-.112-.123-.202-.232-.244-.166-.064-.865.386-.971.164l-.369.005c-.078-.043-.293-.333-.393-.297-.198.072.307.624.445.696.131-.099.55-.301.641-.025.174.521-.477 1.089-.808 1.39-.497.449-.405-.291-.743-.551-.178-.136-.176-.427-.355-.527-.08-.045-.447-.469-.445-.526l-.009.107c-.061.046-.19-.173-.204-.208 0 .191.311.495.412.647.176.262.27.644.483.857.116.116.556.591.67.581l.589-.279c.416.099-.979 2.073-1.111 2.317-.109.205.088.711.072.954-.02.28-.24.371-.447.523-.225.163-.172.481-.361.598-.334.206-.573.875-1.048.872-.14 0-.737.233-.817.004-.061-.165-.141-.291-.227-.455-.084-.16-.01-.326-.111-.467-.072-.099-.308-.322-.329-.438-.001-.1.075-.405.181-.458.148-.076.029-.296.011-.424-.03-.228-.172-.417-.343-.55-.252-.193-.121-.347-.062-.623 0-.132-.08-.306-.257-.253-.366.106-.255-.285-.521-.267-.191.014-.348.135-.525.188-.225.067-.453-.053-.674-.081-.91-.115-1.207-1.155-.971-1.906l-.03-.445c.103-.228.311-.483.493-.656.102-.097.233-.072.354-.147.186-.117.188-.358.369-.505.259-.21.612-.206.949-.251.18-.024.864-.172.973-.039 0 .024.123.391-.013.37.279.015.679.484.944.375.137-.057.088-.476.367-.273.17.122.929.176 1.087.045.098-.08.151-.602.033-.66.074.074-.397.08-.441.063-.077-.028-.149.074-.274.017.075.035-.417-.229-.141-.432l-.349.069-.083.178c-.194.099-.342-.34-.416-.389-.075-.05-.656-.457-.498-.191l.512.508c-.025.017-.135-.185-.135-.038.033-.087.014.375-.067.224l.003-.173c0-.055-.146-.108-.176-.146-.08-.101-.295-.322-.412-.375-.031-.015-.493.057-.532.072l-.116.201-.271.138-.1.228c-.046.039-.496.188-.498.194.02-.049-.314-.111-.293-.208.025-.106.139-.439.109-.562-.031-.128.694.184.741-.152.019-.145.029-.315-.204-.339.046.005.45-.159.518-.233.095-.108.312-.286.468-.286.184 0 .144-.267.229-.397.085.034-.046.243.057.328-.007-.066.288.037.316.021.067-.035.442-.015.384-.191-.063-.18.033-.126.117-.164-.014.006.22-.4.261-.267-.028-.137-.272.048-.357.041-.196-.016-.114-.336-.04-.43.057-.075-.156-.166-.16-.023-.002.213-.2.405-.154.688.068.426-.477-.103-.523-.074-.182.109-.33-.138-.236-.288l.422-.308c.067-.115.146-.249.249-.336.347-.291.441-.058.786-.026.338.031.113.08.068.209-.045.124.186.167.265.064.046-.06.147-.209.192-.319.058-.143.582-.127.216-.347-.241-.144-1.296-.435-2.002-.435-.153 0-.259.17-.376.267-.23.19-.819.565-1.148.452-.335-.116-1.054.427-1.168.43-.043.002 0-.411.23-.441-.1.015.805-.457.781-.556-.029-.116-1.81.532-1.73.662.038.06.193.06-.01.19-.117.07-.242.518-.35.518-.327.143-.35-.281-.712.265l-.579.233c-.859.912-1.453 2.067-1.668 3.352-.008.051.215.146.244.181.072.087.072.46.107.583.09.309.311.481.479.762.101.167.265.591.213.767.07-.115.692.527.806.661.268.315.475.697.039 1.008-.14.101.213.73.031.885l-.234.06c-.229.141-.126.488.014.635 1.177 1.229 2.834 1.996 4.67 1.996 3.566 0 6.46-2.892 6.46-6.46zm-7.442-4.111c.081-.036.189-.034.201-.142l.051-.064c.023-.034-.043-.089-.069-.095l-.097.067-.047.012-.044.056.005.031-.057.068c-.055.056.002.091.057.067zm-8.694 1.629c-1.383-1.859-3.034-4.614-2.001-6.379.304-.519.959-1.139 2.355-1.139 1.375 0 3.048.605 4.467 1.266-.604.336-1.165.735-1.683 1.185-1.163-.464-2.117-.696-2.784-.696-.255 0-.702.035-.84.271-.195.333-.109 1.434 1.235 3.492-.318.631-.569 1.301-.749 2zm16.214-5.067c.758-.302 3.212-1.129 3.624-.425.404.689-.521 2.385-1.236 3.491.319.632.57 1.302.75 2.001 1.382-1.858 3.033-4.614 2.001-6.378-.304-.52-.959-1.14-2.355-1.14-1.374 0-3.047.605-4.466 1.266.603.336 1.165.735 1.682 1.185zm3.138 10.031c-.18.699-.431 1.369-.75 2.001 1.342 2.055 1.432 3.157 1.236 3.491-.412.705-2.862-.126-3.621-.428-.52.451-1.082.852-1.688 1.189 1.386.645 3.08 1.265 4.469 1.265 1.396 0 2.051-.62 2.354-1.139 1.042-1.778-.645-4.555-2-6.379zm-16.217 5.065c-.759.302-3.209 1.133-3.621.428-.195-.334-.105-1.436 1.236-3.491-.318-.632-.569-1.301-.749-2-1.356 1.823-3.042 4.601-2.002 6.377.304.519.959 1.139 2.355 1.139 1.39 0 3.083-.62 4.469-1.264-.606-.338-1.168-.738-1.688-1.189z"/>
  </symbol>

  <symbol id="shield-1-thin" fill-rule="evenodd" clip-rule="evenodd">
    <path d="M12 0c-3.371 2.866-5.484 3-9 3v11.535c0 4.603 3.203 5.804 9 9.465 5.797-3.661 9-4.862 9-9.465v-11.535c-3.516 0-5.629-.134-9-3zm0 1.292c2.942 2.31 5.12 2.655 8 2.701v10.542c0 3.891-2.638 4.943-8 8.284-5.375-3.35-8-4.414-8-8.284v-10.542c2.88-.046 5.058-.391 8-2.701zm5 7.739l-5.992 6.623-3.672-3.931.701-.683 3.008 3.184 5.227-5.878.728.685z"/>
  </symbol>

  <symbol id="phone-13" fill-rule="evenodd" clip-rule="evenodd">
    <path d="M2.59 1.322l2.844-1.322 4.041 7.889-2.724 1.342c-.538 1.259 2.159 6.289 3.297 6.372.09-.058 2.671-1.328 2.671-1.328l4.11 7.932s-2.764 1.354-2.854 1.396c-.598.273-1.215.399-1.842.397-5.649-.019-12.086-10.43-12.133-17.33-.016-2.407.745-4.387 2.59-5.348zm1.93 1.274l-1.023.504c-5.294 2.762 4.177 21.185 9.648 18.686l.972-.474-2.271-4.383-1.026.501c-3.163 1.547-8.262-8.219-5.055-9.938l1.007-.498-2.252-4.398zm15.48 14.404h-1v-13h1v13zm-2-2h-1v-9h1v9zm4-1h-1v-7h1v7zm-6-1h-1v-5h1v5zm-2-1h-1v-3h1v3zm10 0h-1v-3h1v3zm-12-1h-1v-1h1v1z"/>
  </symbol>

  <symbol id="code-thin" fill-rule="evenodd" clip-rule="evenodd">
    <path d="M16 3.383l-.924-.383-7.297 17.617.924.383 7.297-17.617zm.287 3.617l6.153 4.825-6.173 5.175.678.737 7.055-5.912-7.048-5.578-.665.753zm-8.478 0l-6.249 4.825 6.003 5.175-.679.737-6.884-5.912 7.144-5.578.665.753z"/>
  </symbol>

  <symbol id="marketing-35" fill-rule="evenodd" clip-rule="evenodd">
    <path d="M22 23h-20c-.963 0-2-.761-2-2v-18c0-.963.76-2 2-2h20c.963 0 2 .76 2 2v18c0 1.242-1.042 2-2 2zm1-6h-22v4c0 .484.383 1 1 1h20c.48 0 1-.379 1-1v-4zm-20 4v-3l3 1.5-3 1.5zm18-2v1h-13v-1h13zm1-17h-20c-.486 0-1 .384-1 1v13h22v-13c0-.619-.519-1-1-1zm-9.566 2.246c-.298 0-.513.294-.418.58 0 0-.62 2.126-4.503 4.032-.775.381-1.133 1.034-1.133 1.673 0 .988.783 1.695 1.83 1.695.228 0 .46-.035.686-.106l1.75 1.931c.112.126.27.195.433.195.059 0 1.472-.331 1.594-.372.221-.072.313-.339.181-.533l-1.274-1.979c.983-.327 2.226-.281 3.023-.043.102.314.417.327.557.28.23-.077.355-.327.278-.557l-2.587-6.494c-.061-.185-.232-.302-.417-.302zm-.006 1.941l1.593 4.001c-1.741-.227-2.681.2-3.979.631l1.481 2.301-.306.071-2.011-2.217c-.623.197-.745.252-.996.252-.958 0-1.152-1.03-.256-1.47 2.568-1.261 3.85-2.638 4.474-3.569zm2.46-1.356c.854.361 1.568 1.049 1.945 1.977.376.929.341 1.924-.019 2.778l.829.353c.233-.554.357-1.155.357-1.767 0-1.781-1.053-3.449-2.762-4.172l-.35.831zm-.598 1.419c.491.207.904.603 1.12 1.138.217.535.197 1.107-.01 1.599l.808.343c.294-.701.324-1.513.016-2.273-.308-.76-.894-1.323-1.593-1.618l-.341.811z"/>
  </symbol>

  <symbol id="glasses-12">
    <path d="M17.944 5c-1.138 0-2.376.129-3.394.491-2.283.828-2.792.838-5.103 0-1.015-.362-2.256-.491-3.392-.491-1.971 0-4.17.387-6.055.878v1.789c.847.255 1.068.627 1.203 1.493.381 2.443 1.255 4.84 5.068 4.84 3.037 0 4.051-2.259 4.722-4.345.341-1.06 1.663-1.087 2.009-.015.673 2.089 1.682 4.36 4.725 4.36 3.814 0 4.689-2.397 5.069-4.841.135-.866.356-1.237 1.204-1.492v-1.789c-1.887-.491-4.085-.878-6.056-.878zm-7.682 3.814c-.518 2.174-1.36 4.186-3.991 4.186-3.301 0-3.974-1.903-4.275-4.973-.072-.747.092-1.04.221-1.195.947-1.134 5.952-1.088 7.611-.092.475.285.783.601.434 2.074zm11.74-.787c-.301 3.07-.975 4.973-4.275 4.973-2.629 0-3.472-2.012-3.989-4.186-.351-1.473-.042-1.789.434-2.074 1.665-1 6.667-1.038 7.611.092.129.156.293.449.219 1.195zm-4.838-1.121c1.539-.234 3.318-.03 3.791.537.104.124.234.358.176.956-.031.316-.067.616-.112.9-.41-1.487-1.457-2.283-3.855-2.393zm-14.184 2.393c-.045-.284-.082-.584-.113-.9-.058-.598.073-.832.177-.956.474-.567 2.253-.771 3.792-.537-2.398.11-3.445.906-3.856 2.393zm16.02 7.764c-1.15 2.869-6.031 2.166-7 .369-.97 1.797-5.85 2.5-7-.369.578.506 1.565.669 2.318.559 2.22-.325 2.042-2.423 3.594-2.423.425 0 .81.177 1.088.464.278-.287.662-.464 1.087-.464 1.552 0 1.375 2.099 3.594 2.423.753.11 1.74-.053 2.319-.559z"/>
  </symbol>
    
  <symbol id="vk-4">
    <path d="M12 0c-6.627 0-12 5.373-12 12s5.373 12 12 12 12-5.373 12-12-5.373-12-12-12zm6.344 16.163h-1.867c-1.055 0-1.232-.601-2.102-1.469-.785-.785-1.22-.183-1.202.935.006.297-.141.534-.495.534-1.105 0-2.694.156-4.304-1.58-1.647-1.779-3.374-5.348-3.374-5.699 0-.208.172-.301.459-.301h1.898c.503 0 .545.249.686.568.584 1.331 1.981 4.002 2.354 2.511.214-.856.301-2.839-.615-3.01-.52-.096.396-.652 1.722-.652.33 0 .688.035 1.054.12.673.156.676.458.666.898-.034 1.666-.235 2.786.204 3.069.419.271 1.521-1.502 2.104-2.871.159-.378.191-.632.643-.632h2.322c1.216 0-.159 1.748-1.21 3.112-.847 1.099-.802 1.12.183 2.034.701.651 1.53 1.54 1.53 2.043 0 .238-.186.39-.656.39z"/>
  </symbol>
  
  <symbol id="telegram-4" style="fill-rule:evenodd;clip-rule:evenodd;stroke-linejoin:round;stroke-miterlimit:1.41421;">
    <path d="M12,0c-6.626,0 -12,5.372 -12,12c0,6.627 5.374,12 12,12c6.627,0 12,-5.373 12,-12c0,-6.628 -5.373,-12 -12,-12Zm3.224,17.871c0.188,0.133 0.43,0.166 0.646,0.085c0.215,-0.082 0.374,-0.267 0.422,-0.491c0.507,-2.382 1.737,-8.412 2.198,-10.578c0.035,-0.164 -0.023,-0.334 -0.151,-0.443c-0.129,-0.109 -0.307,-0.14 -0.465,-0.082c-2.446,0.906 -9.979,3.732 -13.058,4.871c-0.195,0.073 -0.322,0.26 -0.316,0.467c0.007,0.206 0.146,0.385 0.346,0.445c1.381,0.413 3.193,0.988 3.193,0.988c0,0 0.847,2.558 1.288,3.858c0.056,0.164 0.184,0.292 0.352,0.336c0.169,0.044 0.348,-0.002 0.474,-0.121c0.709,-0.669 1.805,-1.704 1.805,-1.704c0,0 2.084,1.527 3.266,2.369Zm-6.423,-5.062l0.98,3.231l0.218,-2.046c0,0 3.783,-3.413 5.941,-5.358c0.063,-0.057 0.071,-0.153 0.019,-0.22c-0.052,-0.067 -0.148,-0.083 -0.219,-0.037c-2.5,1.596 -6.939,4.43 -6.939,4.43Z"/>
  </symbol>

  <symbol id="email-13">
    <path d="M13.718 10.528c0 .792-.268 1.829-.684 2.642-1.009 1.98-3.063 1.967-3.063-.14 0-.786.27-1.799.687-2.58 1.021-1.925 3.06-1.624 3.06.078zm10.282 1.472c0 6.627-5.373 12-12 12s-12-5.373-12-12 5.373-12 12-12 12 5.373 12 12zm-5-1.194c0-3.246-2.631-5.601-6.256-5.601-4.967 0-7.744 3.149-7.744 7.073 0 3.672 2.467 6.517 7.024 6.517 2.52 0 4.124-.726 5.122-1.288l-.687-.991c-1.022.593-2.251 1.136-4.256 1.136-3.429 0-5.733-2.199-5.733-5.473 0-5.714 6.401-6.758 9.214-5.071 2.624 1.642 2.524 5.578.582 7.083-1.034.826-2.199.799-1.821-.756 0 0 1.212-4.489 1.354-4.975h-1.364l-.271.952c-.278-.785-.943-1.295-1.911-1.295-2.018 0-3.722 2.19-3.722 4.783 0 1.73.913 2.804 2.38 2.804 1.283 0 1.95-.726 2.364-1.373-.3 2.898 5.725 1.557 5.725-3.525z"/>
  </symbol>
  
</svg>
